<svg width="34" height="34" viewBox="0 0 34 34" fill="none" xmlns="http://www.w3.org/2000/svg">
<path d="M32.5784 12.8061C33.1074 14.1128 33.1074 16.4069 33.1074 18.5556C33.1074 19.601 32.843 22.4757 31.2563 24.5665C30.1926 25.5129 29.2794 26.8553 27.8189 27.4412C26.6789 27.8986 24.5386 28.3328 22.2663 28.2252C18.8968 28.0658 15.3367 27.1799 15.1271 27.1799C14.2228 27.1799 21.2087 26.1345 23.8528 23.5211C25.7038 21.6917 25.9682 19.3396 25.9682 18.0329C25.9682 16.9763 26.3198 14.7769 25.4393 13.3288C23.7065 10.4787 20.5046 8.36328 21.473 8.36328C22.9333 8.36328 31.3764 9.83675 32.5784 12.8061Z" fill="#8CC63E"/>
<path d="M13.04 23.9217C12.4927 24.4463 11.5732 24.7411 10.4451 24.853C9.32597 24.9641 8.04524 24.8909 6.82307 24.72C5.60189 24.5493 4.45 24.2825 3.59159 24.0121C3.16155 23.8766 2.81162 23.7422 2.56557 23.6213C2.44519 23.5622 2.35655 23.5096 2.29729 23.4657C2.31505 23.4483 2.33934 23.4273 2.37257 23.4029C2.4824 23.3222 2.64872 23.2339 2.87272 23.135C3.18392 22.9977 3.57263 22.8541 4.01828 22.6893C4.21608 22.6162 4.42511 22.539 4.64355 22.4563C6.04315 21.9265 7.77865 21.1921 9.0369 19.9859C9.51521 19.5274 10.6889 18.8596 12.0528 18.3053C13.4132 17.7524 14.9044 17.3365 16.0029 17.3455C17.5139 17.3578 18.7704 17.899 19.681 18.5329C20.1364 18.8498 20.5025 19.1881 20.7679 19.4908C20.9571 19.7064 21.0878 19.8956 21.1654 20.0399C21.0748 20.0863 20.9484 20.1314 20.7728 20.1786C20.614 20.2212 20.4411 20.2598 20.2431 20.304C20.0805 20.3403 19.901 20.3803 19.6984 20.4295C18.8246 20.6418 17.6754 20.9923 16.3187 21.8099C15.9903 22.0078 15.6793 22.184 15.3822 22.3509C15.3406 22.3743 15.2993 22.3975 15.2582 22.4206C15.0066 22.5618 14.7639 22.698 14.5318 22.8349C13.9908 23.1544 13.4952 23.4853 13.04 23.9217Z" fill="#1FB26C" stroke="#35AC75" stroke-width="0.5"/>
<path d="M30.9952 9.4083C21.4763 5.22683 17.9645 8.10159 10.3708 8.10159C2.7771 8.10159 0.0585938 2.02069 0.0585938 0C2.17392 0.522683 10.1807 1.30671 17.7745 1.30671C25.3682 1.30671 29.9376 6.79488 30.9952 9.4083Z" fill="#D5E626"/>
<path d="M4.00039 22.7131C6.83539 23.657 9.80075 23.8299 14.3008 26.3299C19.3008 26.8299 22.3712 24.7129 28.8711 24.5174C31.8775 24.5174 26.3008 30.8299 24.3008 31.8299C23.4145 32.273 9.5513 37.0543 2.0021 24.0004C1.5 23 2.49951 22.2135 4.00039 22.7131Z" fill="#1FB26C"/>
</svg>
