<svg width="96" height="96" viewBox="0 0 96 96" fill="none" xmlns="http://www.w3.org/2000/svg">
<path d="M29.25 57.375C44.783 57.375 57.375 44.783 57.375 29.25C57.375 13.717 44.783 1.125 29.25 1.125C13.717 1.125 1.125 13.717 1.125 29.25C1.125 44.783 13.717 57.375 29.25 57.375Z" fill="#ADADAD"/>
<path d="M26.9062 57.25C41.1448 57.25 52.6875 44.714 52.6875 29.25C52.6875 13.786 41.1448 1.25 26.9062 1.25C12.6677 1.25 1.125 13.786 1.125 29.25C1.125 44.714 12.6677 57.25 26.9062 57.25Z" fill="#E6E6E6"/>
<path d="M88.625 66.75V54.25C88.625 52.5924 87.9665 51.0027 86.7944 49.8306C85.6223 48.6585 84.0326 48 82.375 48H32.375C30.7174 48 29.1277 48.6585 27.9556 49.8306C26.7835 51.0027 26.125 52.5924 26.125 54.25V66.75" fill="#754C24"/>
<path d="M77.6875 48H32.375C30.7174 48 29.1277 48.6585 27.9556 49.8306C26.7835 51.0027 26.125 52.5924 26.125 54.25V66.75H83.9375V54.25C83.9375 52.5924 83.279 51.0027 82.1069 49.8306C80.9348 48.6585 79.3451 48 77.6875 48Z" fill="#8C6239"/>
<path d="M82.375 66.75V58.9375C82.375 58.5231 82.2104 58.1257 81.9174 57.8326C81.6243 57.5396 81.2269 57.375 80.8125 57.375H62.0625C61.6481 57.375 61.2507 57.5396 60.9576 57.8326C60.6646 58.1257 60.5 58.5231 60.5 58.9375V66.75" fill="#999999"/>
<path d="M76.125 57.375H62.0625C61.6481 57.375 61.2507 57.5396 60.9576 57.8326C60.6646 58.1257 60.5 58.5231 60.5 58.9375V66.75H77.6875V58.9375C77.6875 58.5231 77.5229 58.1257 77.2299 57.8326C76.9368 57.5396 76.5394 57.375 76.125 57.375Z" fill="#B3B3B3"/>
<path d="M54.25 66.75V58.9375C54.25 58.5231 54.0854 58.1257 53.7924 57.8326C53.4993 57.5396 53.1019 57.375 52.6875 57.375H33.9375C33.5231 57.375 33.1257 57.5396 32.8326 57.8326C32.5396 58.1257 32.375 58.5231 32.375 58.9375V66.75" fill="#999999"/>
<path d="M48 57.375H33.9375C33.5231 57.375 33.1257 57.5396 32.8326 57.8326C32.5396 58.1257 32.375 58.5231 32.375 58.9375V66.75H49.5625V58.9375C49.5625 58.5231 49.3979 58.1257 49.1049 57.8326C48.8118 57.5396 48.4144 57.375 48 57.375Z" fill="#B3B3B3"/>
<path d="M91.75 76.125V69.875C91.75 69.0462 91.4208 68.2513 90.8347 67.6653C90.2487 67.0792 89.4538 66.75 88.625 66.75H26.125C25.2962 66.75 24.5013 67.0792 23.9153 67.6653C23.3292 68.2513 23 69.0462 23 69.875V76.125" fill="#75ACB7"/>
<path d="M83.9375 66.75H26.125C25.2962 66.75 24.5013 67.0792 23.9153 67.6653C23.3292 68.2513 23 69.0462 23 69.875V76.125H87.0625V69.875C87.0625 69.0462 86.7333 68.2513 86.1472 67.6653C85.5612 67.0792 84.7663 66.75 83.9375 66.75Z" fill="#9CE5F4"/>
<path d="M91.75 85.5V94.875H85.5V85.5" fill="#603813"/>
<path d="M29.25 85.5V94.875H23V85.5" fill="#603813"/>
<path d="M94.875 76.125H19.875V85.5H94.875V76.125Z" fill="#754C24"/>
<path d="M90.1875 76.125H19.875V85.5H90.1875V76.125Z" fill="#8C6239"/>
<path d="M94.875 76.125H19.875V85.5H94.875V76.125Z" stroke="black" stroke-width="2" stroke-linejoin="round"/>
<path d="M91.75 85.5V94.875H85.5V85.5" stroke="black" stroke-width="2" stroke-linejoin="round"/>
<path d="M29.25 85.5V94.875H23V85.5" stroke="black" stroke-width="2" stroke-linejoin="round"/>
<path d="M91.75 76.125V69.875C91.75 69.0462 91.4208 68.2513 90.8347 67.6653C90.2487 67.0792 89.4538 66.75 88.625 66.75H26.125C25.2962 66.75 24.5013 67.0792 23.9153 67.6653C23.3292 68.2513 23 69.0462 23 69.875V76.125" stroke="black" stroke-width="2" stroke-linejoin="round"/>
<path d="M82.375 66.75V58.9375C82.375 58.5231 82.2104 58.1257 81.9174 57.8326C81.6243 57.5396 81.2269 57.375 80.8125 57.375H62.0625C61.6481 57.375 61.2507 57.5396 60.9576 57.8326C60.6646 58.1257 60.5 58.5231 60.5 58.9375V66.75" stroke="black" stroke-width="2" stroke-linejoin="round"/>
<path d="M54.25 66.75V58.9375C54.25 58.5231 54.0854 58.1257 53.7924 57.8326C53.4993 57.5396 53.1019 57.375 52.6875 57.375H33.9375C33.5231 57.375 33.1257 57.5396 32.8326 57.8326C32.5396 58.1257 32.375 58.5231 32.375 58.9375V66.75" stroke="black" stroke-width="2" stroke-linejoin="round"/>
<path d="M88.625 66.75V54.25C88.625 52.5924 87.9665 51.0027 86.7944 49.8306C85.6223 48.6585 84.0326 48 82.375 48H32.375C30.7174 48 29.1277 48.6585 27.9556 49.8306C26.7835 51.0027 26.125 52.5924 26.125 54.25V66.75" stroke="black" stroke-width="2" stroke-linejoin="round"/>
<path d="M50.2194 47.9993C54.4223 43.2992 56.9239 37.3232 57.3227 31.0307C57.7214 24.7381 55.9942 18.4941 52.4183 13.3011C48.8424 8.10804 43.6252 4.2672 37.6044 2.39518C31.5835 0.523162 25.1083 0.728562 19.2182 2.97841C13.3281 5.22825 8.36487 9.39202 5.12527 14.8013C1.88567 20.2105 0.55765 26.5514 1.35441 32.806C2.15117 39.0606 5.0265 44.8661 9.51877 49.2904C14.011 53.7147 19.8597 56.5011 26.1257 57.2024" stroke="black" stroke-width="2" stroke-linejoin="round"/>
<path d="M29.25 1.125V8.9375" stroke="black" stroke-width="2" stroke-linejoin="round"/>
<path d="M1.125 29.25H8.9375" stroke="black" stroke-width="2" stroke-linejoin="round"/>
<path d="M49.5625 29.25H57.375" stroke="black" stroke-width="2" stroke-linejoin="round"/>
<path d="M43.3125 29.25H29.25V18.3125" stroke="black" stroke-width="2" stroke-linejoin="round"/>
<path d="M62.0625 29.25H73L63.625 38.625H74.5625" stroke="black" stroke-width="2" stroke-linejoin="round"/>
<path d="M94.875 23H83.9375L93.3125 13.625H82.375" stroke="black" stroke-width="2" stroke-linejoin="round"/>
</svg>
