<?xml version="1.0" standalone="no"?>
<!DOCTYPE svg PUBLIC "-//W3C//DTD SVG 1.1//EN" "http://www.w3.org/Graphics/SVG/1.1/DTD/svg11.dtd" >
<svg xmlns="http://www.w3.org/2000/svg">
<metadata>Generated by IcoMoon</metadata>
<defs>
<font id="1creator" horiz-adv-x="1024">
<font-face units-per-em="1024" ascent="960" descent="-64" />
<missing-glyph horiz-adv-x="1024" />
<glyph unicode="&#x20;" horiz-adv-x="512" d="" />
<glyph unicode="&#xe900;" glyph-name="arrow-left-3" d="M895.996 452.527c0-17.673-14.327-32-32-32h-381.867c-17.673 0-32 14.327-32 32s14.327 32 32 32h381.867c17.673 0 32-14.327 32-32zM492.864 254.882c-2.33-5.559-6.089-13.082-12.335-19.324-8.862-8.862-19.665-11.755-27.435-12.651-7.898-0.909-15.753-0.154-22.618 1.067-13.792 2.445-29.449 7.855-45.248 14.519-31.985 13.491-70.456 34.679-107.234 58.095-36.817 23.441-73.215 49.937-100.811 74.53-13.724 12.228-26.081 24.704-35.276 36.685-8.010 10.436-18.342 26.368-18.342 44.471 0 17.941 10.126 33.852 18.056 44.365 9.086 12.049 21.311 24.627 34.919 36.987 27.359 24.846 63.488 51.646 100.171 75.317 36.619 23.63 75.115 44.997 107.42 58.415 15.962 6.63 31.932 11.965 46.175 14.174 7.125 1.105 15.198 1.655 23.305 0.46 8.132-1.2 18.415-4.508 26.906-12.986l0.013-0.014c6.217-6.215 10.116-13.649 12.659-19.539 2.709-6.287 4.881-13.239 6.677-20.303 3.597-14.132 6.332-31.271 8.405-49.779 4.169-37.171 6.025-83.057 5.837-128.335-0.183-45.291-2.419-90.927-6.677-127.633-2.116-18.274-4.821-35.089-8.252-48.832-1.715-6.861-3.767-13.611-6.315-19.691zM436.672 617.647c-6.793-1.462-16.17-4.481-27.991-9.391-27.551-11.443-62.527-30.668-97.268-53.087-34.678-22.377-67.796-47.081-91.846-68.922-12.096-10.982-21.115-20.54-26.847-28.143-1.877-2.487-3.114-4.39-3.92-5.751 0.806-1.327 2.032-3.179 3.879-5.585 5.775-7.522 14.872-16.986 27.085-27.87 24.279-21.636 57.688-46.089 92.605-68.322 34.956-22.259 70.143-41.472 97.734-53.111 10.931-4.612 19.798-7.659 26.471-9.357 0.171 0.627 0.337 1.284 0.512 1.971 2.492 9.984 4.809 23.77 6.771 40.695 3.904 33.69 6.071 76.843 6.255 120.529 0.179 43.699-1.634 86.974-5.44 120.938-1.916 17.059-4.245 30.981-6.827 41.128-0.401 1.577-0.794 3-1.173 4.279zM433.182 278.229c0 0 0.026 0.047 0.073 0.124-0.047-0.085-0.068-0.124-0.073-0.124z" />
<glyph unicode="&#xe901;" glyph-name="arrow-left-circle" d="M842.948 778.94c71.159-71.158 95.714-181.188 95.714-330.953s-24.555-259.793-95.714-330.953c-71.159-71.159-181.188-95.714-330.953-95.714s-259.794 24.555-330.953 95.714c-71.158 71.159-95.714 181.188-95.714 330.953s24.556 259.794 95.714 330.953c71.159 71.159 181.189 95.714 330.953 95.714s259.793-24.556 330.953-95.714zM797.696 733.685c-52.181 52.18-139.486 76.969-285.7 76.969s-233.517-24.788-285.698-76.969c-52.18-52.18-76.969-139.483-76.969-285.698s24.788-233.519 76.969-285.696c52.18-52.181 139.484-76.971 285.698-76.971s233.519 24.789 285.7 76.971c52.177 52.177 76.966 139.482 76.966 285.696s-24.789 233.518-76.966 285.698zM599.91 281.826c-9.993-14.575-29.909-18.291-44.489-8.299l18.095 26.394c-18.095-26.394-18.091-26.394-18.095-26.394l-0.149 0.107-0.367 0.247-1.335 0.93c-1.156 0.802-2.825 1.971-4.928 3.46-4.211 2.982-10.193 7.266-17.353 12.544-14.281 10.53-33.451 25.152-52.727 41.357-19.106 16.055-39.151 34.359-54.691 52.233-7.758 8.926-15.052 18.487-20.559 28.237-5.232 9.259-10.531 21.589-10.531 35.332s5.298 26.074 10.528 35.332c5.506 9.749 12.8 19.315 20.556 28.241 15.54 17.886 35.581 36.197 54.687 52.265 19.277 16.215 38.443 30.846 52.727 41.383 7.159 5.283 13.137 9.571 17.348 12.554 2.108 1.492 3.776 2.659 4.928 3.463l1.847 1.28c0.004 0.003 0.009 0.005 18.112-26.381l-18.112 26.381c14.575 9.999 34.5 6.297 44.497-8.276 10.001-14.571 6.293-34.488-8.273-44.488-0.004-0.001 0 0.001 0 0l-1.493-1.033c-1.024-0.714-2.551-1.784-4.514-3.173-3.921-2.778-9.562-6.823-16.346-11.828-13.606-10.039-31.625-23.802-49.527-38.863-18.082-15.206-35.221-31.049-47.569-45.261-6.191-7.121-10.517-13.086-13.146-17.741-0.998-1.766-1.574-3.038-1.903-3.857 0.329-0.815 0.905-2.086 1.903-3.853 2.628-4.646 6.95-10.611 13.137-17.728 12.348-14.204 29.491-30.033 47.569-45.231 17.903-15.049 35.921-28.8 49.527-38.831 6.784-5.001 12.425-9.041 16.346-11.819 1.958-1.387 3.49-2.458 4.514-3.17l1.148-0.798 0.273-0.188 0.060-0.038c0-0.004 0 0 0 0zM599.91 281.826c9.993 14.575 6.272 34.496-8.303 44.493z" />
<glyph unicode="&#xe902;" glyph-name="arrow-left-square" d="M718.332 448c0 8.486-3.371 16.627-9.37 22.626-6.003 6.003-14.144 9.374-22.63 9.374h-348.665c-8.487 0-16.626-3.371-22.627-9.374-6.001-5.999-9.373-14.14-9.373-22.626s3.372-16.627 9.373-22.626c6.001-6.003 14.141-9.374 22.627-9.374h348.665c8.486 0 16.627 3.371 22.63 9.374 5.999 5.999 9.37 14.14 9.37 22.626zM530.249 607.583c0.073 6.464-1.818 12.797-5.414 18.167-2.342 3.492-5.346 6.489-8.849 8.818-3.499 2.33-7.42 3.948-11.546 4.76s-8.371 0.804-12.493-0.024c-4.122-0.829-8.038-2.461-11.529-4.805 0 0-41.195-27.572-82.918-62.333-20.861-17.381-41.925-36.568-58.917-56.25s-32.917-38.46-32.917-67.917c0-29.457 15.845-48.218 32.833-67.917 16.989-19.695 38.14-38.848 59-56.252 41.719-34.803 82.918-62.498 82.918-62.498 3.49-2.342 7.407-3.977 11.529-4.804s8.367-0.836 12.493-0.026c4.126 0.815 8.047 2.432 11.55 4.762 3.499 2.33 6.502 5.325 8.845 8.819 2.342 3.49 3.977 7.407 4.804 11.529s0.836 8.367 0.026 12.493c-0.815 4.126-2.432 8.047-4.762 11.55-2.33 3.499-5.325 6.502-8.819 8.845 0 0-39.006 26.231-77.581 58.415-19.291 16.094-38.379 33.702-51.502 48.917s-17.333 29.513-17.333 26.167c0-3.345 4.213 10.884 17.333 26.082s32.128 32.764 51.417 48.836c38.575 32.138 77.666 58.415 77.666 58.415 4.318 2.896 7.859 6.8 10.33 11.373 2.466 4.574 3.785 9.68 3.836 14.877v0zM938.667 448c0 151.546-25.033 260.198-95.748 330.917-70.72 70.719-179.371 95.75-330.918 95.75-151.546 0-260.198-25.031-330.917-95.75s-95.75-179.371-95.75-330.917c0-151.548 25.031-260.198 95.75-330.918 70.719-70.716 179.371-95.748 330.917-95.748 151.548 0 260.198 25.033 330.918 95.748 70.716 70.72 95.748 179.371 95.748 330.918zM874.667 448c0-144.431-24.38-233.045-77.001-285.666s-141.235-77.001-285.666-77.001c-144.433 0-233.047 24.38-285.667 77.001s-77 141.235-77 285.666c0 144.433 24.381 233.047 77 285.667s141.234 77 285.667 77c144.431 0 233.045-24.381 285.666-77s77.001-141.234 77.001-285.667z" />
<glyph unicode="&#xe903;" glyph-name="arrow-left" d="M853.329 436.297c0-17.673-14.327-32-32-32h-640c-17.673 0-32 14.327-32 32s14.327 32 32 32h640c17.673 0 32-14.327 32-32zM467.644 164.070c-8.384-15.561-27.793-21.372-43.351-12.988l15.183 28.169c-15.183-28.169-15.176-28.173-15.183-28.169l-0.086 0.047-0.18 0.098-0.634 0.346-2.327 1.28c-2.006 1.114-4.902 2.735-8.561 4.826-7.315 4.181-17.696 10.253-30.127 17.899-24.8 15.253-58.043 36.954-91.447 62.583-33.215 25.485-67.631 55.642-94.033 87.953-25.783 31.556-47.554 69.547-47.554 110.118 0 40.585 21.764 78.596 47.549 110.167 26.403 32.329 60.818 62.5 94.033 87.996 33.405 25.641 66.649 47.351 91.448 62.611 12.431 7.649 22.813 13.722 30.127 17.904 3.659 2.092 6.555 3.714 8.561 4.826l2.327 1.282 0.634 0.346 0.235 0.127c0.007 0.003 0.031 0.017 15.217-28.15l-15.217 28.15c15.555 8.387 34.998 2.593 43.386-12.963 8.384-15.554 2.577-34.96-12.975-43.35 0-0.001 0.004 0.001 0 0l-0.115-0.062-0.474-0.258-1.988-1.096c-1.775-0.984-4.425-2.468-7.825-4.411-6.801-3.889-16.585-9.612-28.355-16.853-23.6-14.522-54.889-34.977-86.019-58.871-31.318-24.040-61.436-50.776-83.433-77.712-22.616-27.691-33.118-51.302-33.118-69.683 0-18.351 10.496-41.941 33.113-69.619 21.997-26.923 52.114-53.645 83.433-77.675 31.129-23.885 62.419-44.335 86.019-58.85 11.77-7.241 21.553-12.958 28.355-16.845 3.401-1.946 6.050-3.43 7.825-4.412l2.564-1.408c0 0-0.004 0 0 0zM467.644 164.070c8.384 15.552 2.56 34.965-12.992 43.354z" />
<glyph unicode="&#xe904;" glyph-name="arrow-right-2" d="M335.13 762.969c9.003 15.208 28.63 20.238 43.838 11.235l-16.301-27.537c16.301 27.537 16.295 27.54 16.301 27.537l0.282-0.168 0.708-0.423 2.639-1.59c2.284-1.383 5.595-3.405 9.787-6.009 8.381-5.206 20.298-12.748 34.577-22.171 28.501-18.811 66.662-45.286 104.969-75.778 38.118-30.342 77.355-65.427 107.354-101.545 28.988-34.898 54.050-76.272 54.050-118.521 0-42.24-25.067-83.605-54.050-118.502-29.999-36.117-69.235-71.202-107.354-101.547-38.306-30.494-76.467-56.973-104.969-75.785-14.276-9.425-26.193-16.969-34.574-22.178-4.192-2.603-7.503-4.625-9.787-6.007l-2.639-1.591-0.708-0.422-0.253-0.149c-0.006-0.004-0.030-0.017-16.334 27.516l16.334-27.516c-15.207-9.007-34.864-3.994-43.869 11.213s-3.977 34.829 11.227 43.836c0.001 0-0.001 0 0 0zM346.359 176.866l0.154 0.094 0.573 0.341 2.356 1.417c2.091 1.267 5.197 3.166 9.172 5.636 7.952 4.937 19.369 12.164 33.091 21.222 27.499 18.15 64.006 43.499 100.367 72.448 36.548 29.094 71.979 61.060 97.98 92.365 27.017 32.525 39.283 58.944 39.283 77.611 0 18.679-12.271 45.107-39.283 77.628-26.001 31.308-61.431 63.273-97.98 92.365-36.361 28.944-72.866 54.287-100.364 72.436-13.722 9.057-25.138 16.28-33.091 21.22-3.975 2.469-7.080 4.365-9.171 5.631l-3.058 1.838c-0.001 0.001 0.002-0.001 0 0-15.204 9.004-20.259 28.645-11.256 43.851z" />
<glyph unicode="&#xe905;" glyph-name="arrow-right-3" d="M128.004 443.473c0 17.673 14.327 32 32 32h381.867c17.673 0 32-14.327 32-32s-14.327-32-32-32h-381.867c-17.673 0-32 14.327-32 32zM531.136 641.116c2.33 5.563 6.089 13.082 12.335 19.327 8.862 8.862 19.661 11.752 27.43 12.648 7.898 0.911 15.757 0.154 22.622-1.065 13.79-2.447 29.449-7.857 45.248-14.521 31.983-13.492 70.455-34.676 107.234-58.094 36.817-23.442 73.212-49.936 100.809-74.53 13.726-12.228 26.082-24.704 35.277-36.685 8.013-10.436 18.342-26.368 18.342-44.471 0-17.941-10.125-33.852-18.057-44.365-9.084-12.049-21.312-24.627-34.918-36.988-27.358-24.845-63.488-51.648-100.173-75.315-36.617-23.633-75.11-44.996-107.418-58.415-15.962-6.63-31.932-11.968-46.174-14.178-7.125-1.105-15.202-1.655-23.305-0.457-8.132 1.199-18.415 4.506-26.906 12.983l-0.013 0.017c-6.217 6.212-10.121 13.649-12.659 19.537-2.709 6.289-4.881 13.239-6.682 20.305-3.593 14.131-6.327 31.27-8.405 49.779-4.169 37.167-6.025 83.055-5.837 128.333 0.188 45.291 2.423 90.928 6.682 127.635 2.116 18.274 4.821 35.089 8.252 48.832 1.715 6.859 3.767 13.61 6.315 19.686zM587.328 278.353c6.793 1.463 16.166 4.48 27.989 9.391 27.55 11.443 62.528 30.669 97.267 53.086 34.679 22.379 67.797 47.083 91.849 68.924 12.096 10.982 21.116 20.54 26.846 28.143 1.877 2.487 3.115 4.39 3.921 5.751-0.806 1.327-2.035 3.179-3.878 5.585-5.777 7.522-14.874 16.986-27.085 27.87-24.282 21.636-57.69 46.089-92.608 68.323-34.957 22.257-70.14 41.472-97.732 53.111-10.931 4.611-19.802 7.658-26.475 9.358-0.166-0.628-0.337-1.285-0.508-1.972-2.492-9.984-4.809-23.77-6.771-40.695-3.908-33.69-6.076-76.843-6.255-120.529-0.179-43.699 1.63-86.976 5.44-120.939 1.911-17.058 4.245-30.98 6.827-41.126 0.401-1.579 0.794-2.999 1.173-4.279zM590.814 617.771c0-0.002-0.021-0.045-0.068-0.125 0.043 0.087 0.068 0.127 0.068 0.125z" />
<glyph unicode="&#xe906;" glyph-name="arrow-right-circle" d="M181.051 778.94c-71.159-71.158-95.714-181.188-95.714-330.953s24.556-259.793 95.714-330.953c71.158-71.159 181.188-95.714 330.953-95.714s259.793 24.555 330.953 95.714c71.159 71.159 95.714 181.188 95.714 330.953s-24.555 259.794-95.714 330.953c-71.159 71.159-181.188 95.714-330.953 95.714s-259.795-24.556-330.953-95.714zM226.306 733.685c52.18 52.18 139.483 76.969 285.698 76.969s233.519-24.788 285.696-76.969c52.181-52.18 76.971-139.483 76.971-285.698s-24.789-233.519-76.971-285.696c-52.177-52.181-139.482-76.971-285.696-76.971s-233.518 24.789-285.698 76.971c-52.18 52.177-76.969 139.482-76.969 285.696s24.788 233.518 76.969 285.698zM424.090 281.826c9.993-14.575 29.909-18.291 44.489-8.299l-18.095 26.394c18.095-26.394 18.091-26.394 18.095-26.394l0.149 0.107 0.367 0.247 1.335 0.93c1.156 0.802 2.825 1.971 4.928 3.46 4.211 2.982 10.193 7.266 17.353 12.544 14.281 10.53 33.451 25.152 52.727 41.357 19.106 16.055 39.151 34.359 54.69 52.233 7.757 8.926 15.053 18.487 20.561 28.237 5.231 9.259 10.53 21.589 10.53 35.332s-5.299 26.074-10.53 35.332c-5.504 9.749-12.8 19.315-20.557 28.241-15.539 17.886-35.58 36.197-54.686 52.265-19.277 16.215-38.443 30.846-52.727 41.383-7.159 5.283-13.137 9.571-17.348 12.554-2.108 1.492-3.776 2.659-4.928 3.463l-1.847 1.28c-0.004 0.003-0.009 0.005-18.112-26.381l18.112 26.381c-14.575 9.999-34.5 6.297-44.499-8.276-9.998-14.571-6.292-34.488 8.275-44.488 0.004-0.001 0 0.001 0 0l1.493-1.033c1.024-0.714 2.551-1.784 4.514-3.173 3.921-2.778 9.562-6.823 16.346-11.828 13.606-10.039 31.625-23.802 49.527-38.863 18.082-15.206 35.221-31.049 47.569-45.261 6.191-7.121 10.517-13.086 13.146-17.741 0.998-1.766 1.574-3.038 1.903-3.857-0.329-0.815-0.905-2.086-1.903-3.853-2.628-4.646-6.95-10.611-13.137-17.728-12.348-14.204-29.491-30.033-47.569-45.231-17.903-15.049-35.921-28.8-49.527-38.831-6.784-5.001-12.425-9.041-16.346-11.819-1.958-1.387-3.49-2.458-4.514-3.17l-1.148-0.798-0.273-0.188-0.060-0.038c0-0.004 0 0 0 0zM424.090 281.826c-9.993 14.575-6.27 34.496 8.303 44.493z" />
<glyph unicode="&#xe907;" glyph-name="arrow-right-square" d="M305.667 448c0-8.486 3.372-16.627 9.373-22.626 6.001-6.003 14.141-9.374 22.627-9.374h348.665c8.491 0 16.627 3.371 22.63 9.374 5.999 5.999 9.37 14.14 9.37 22.626s-3.371 16.627-9.37 22.626c-6.003 6.003-14.14 9.374-22.63 9.374h-348.665c-8.487 0-16.626-3.371-22.627-9.374-6.001-5.999-9.373-14.14-9.373-22.626zM493.751 288.418c-0.073-6.464 1.818-12.8 5.414-18.167 2.342-3.494 5.346-6.49 8.849-8.819 3.499-2.33 7.42-3.947 11.546-4.762 4.126-0.811 8.371-0.802 12.493 0.026s8.038 2.462 11.529 4.804c0 0 41.195 27.571 82.918 62.332 20.86 17.382 41.924 36.57 58.914 56.252 16.994 19.682 32.917 38.46 32.917 67.917s-15.842 48.222-32.832 67.917c-16.99 19.697-38.14 38.848-58.999 56.25-41.719 34.804-82.918 62.5-82.918 62.5-3.49 2.343-7.407 3.976-11.529 4.804s-8.367 0.837-12.493 0.024c-4.126-0.813-8.047-2.43-11.546-4.76-3.503-2.33-6.507-5.327-8.849-8.819-2.342-3.49-3.977-7.408-4.804-11.53s-0.836-8.366-0.026-12.491c0.815-4.125 2.432-8.049 4.762-11.549s5.325-6.506 8.819-8.847c0 0 39.006-26.234 77.581-58.415 19.29-16.094 38.379-33.702 51.503-48.917s17.331-29.513 17.331-26.167c0 3.345-4.211-10.884-17.331-26.082s-32.128-32.764-51.418-48.836c-38.575-32.137-77.666-58.415-77.666-58.415-4.318-2.897-7.859-6.801-10.33-11.375-2.466-4.574-3.785-9.677-3.836-14.874v0zM85.333 448c0-151.548 25.031-260.198 95.75-330.918 70.719-70.716 179.371-95.748 330.917-95.748 151.548 0 260.198 25.033 330.918 95.748 70.716 70.72 95.748 179.371 95.748 330.918s-25.033 260.198-95.748 330.917c-70.72 70.719-179.371 95.75-330.918 95.75-151.546 0-260.198-25.031-330.917-95.75s-95.75-179.371-95.75-330.917zM149.333 448c0 144.433 24.381 233.047 77 285.667s141.234 77 285.667 77c144.431 0 233.045-24.381 285.666-77s77.001-141.234 77.001-285.667c0-144.431-24.38-233.045-77.001-285.666s-141.235-77.001-285.666-77.001c-144.433 0-233.047 24.38-285.667 77.001s-77 141.235-77 285.666z" />
<glyph unicode="&#xe908;" glyph-name="arrow-right" d="M170.671 459.703c0 17.673 14.327 32 32 32h640c17.673 0 32-14.327 32-32s-14.327-32-32-32h-640c-17.673 0-32 14.327-32 32zM556.356 731.932c8.384 15.557 27.793 21.371 43.349 12.986l-15.181-28.169c15.181 28.169 15.177 28.172 15.181 28.169l0.090-0.047 0.815-0.443 2.325-1.282c2.005-1.112 4.902-2.733 8.559-4.825 7.317-4.181 17.698-10.252 30.127-17.897 24.802-15.254 58.044-36.956 91.447-62.586 33.216-25.484 67.631-55.641 94.033-87.953 25.783-31.553 47.556-69.546 47.556-110.118 0-40.585-21.764-78.596-47.548-110.165-26.402-32.329-60.821-62.502-94.033-87.996-33.408-25.643-66.65-47.351-91.452-62.613-12.429-7.646-22.81-13.722-30.127-17.903-3.657-2.091-6.554-3.716-8.559-4.826l-3.195-1.758c-0.009 0-0.034-0.013-15.219 28.151l15.219-28.151c-15.556-8.384-34.999-2.59-43.388 12.966-8.384 15.552-2.577 34.957 12.975 43.349 0 0-0.004-0.004 0 0l0.115 0.060 0.474 0.26 1.988 1.097c1.775 0.981 4.425 2.466 7.825 4.407 6.801 3.891 16.585 9.613 28.356 16.853 23.599 14.524 54.886 34.978 86.016 58.871 31.317 24.043 61.436 50.778 83.435 77.713 22.613 27.691 33.118 51.302 33.118 69.683 0 18.351-10.496 41.941-33.114 69.623-21.995 26.918-52.113 53.641-83.435 77.672-31.125 23.884-62.417 44.332-86.016 58.849-11.772 7.239-21.555 12.96-28.356 16.847-3.401 1.943-6.050 3.427-7.825 4.41l-2.564 1.407c0 0.001 0.004-0.001 0 0zM556.356 731.932c-8.384-15.555-2.56-34.968 12.992-43.356z" />
<glyph unicode="&#xe909;" glyph-name="arrow-up-2" d="M197.032 271.13c-15.208 9.003-20.238 28.629-11.235 43.84l27.537-16.303c-27.537 16.303-27.54 16.294-27.537 16.303l0.168 0.282 0.423 0.708 1.589 2.637c1.383 2.287 3.405 5.598 6.009 9.788 5.206 8.38 12.748 20.297 22.17 34.577 18.811 28.501 45.287 66.662 75.778 104.969 30.342 38.118 65.428 77.355 101.546 107.354 34.897 28.986 76.271 54.050 118.52 54.050 42.24 0 83.61-25.066 118.502-54.051 36.117-29.998 71.202-69.234 101.547-107.353 30.494-38.306 56.973-76.467 75.789-104.969 9.425-14.276 16.964-26.193 22.174-34.573 2.603-4.194 4.625-7.505 6.007-9.788l1.591-2.641 0.422-0.708 0.149-0.252c0.004-0.004 0.021-0.030-27.516-16.333l27.516 16.333c9.007-15.206 3.998-34.863-11.213-43.87-15.202-9.003-34.829-3.977-43.836 11.23 0 0 0 0 0 0zM783.134 282.359l-0.090 0.154-0.346 0.572-1.417 2.355c-1.267 2.091-3.166 5.197-5.632 9.173-4.941 7.953-12.169 19.366-21.227 33.092-18.15 27.499-43.499 64.004-72.444 100.365-29.099 36.548-61.065 71.979-92.369 97.98-32.525 27.016-58.944 39.283-77.611 39.283-18.679 0-45.103-12.27-77.628-39.283-31.307-26.001-63.272-61.431-92.365-97.98-28.944-36.361-54.287-72.866-72.436-100.365-9.057-13.722-16.28-25.139-21.22-33.092-2.469-3.972-4.365-7.078-5.631-9.169l-1.42-2.355-0.342-0.572-0.077-0.132c-0.001 0 0.001 0.004 0 0-9.004-15.202-28.644-20.258-43.851-11.255z" />
<glyph unicode="&#xe90a;" glyph-name="arrow-up-3" d="M516.527 64.004c-17.673 0-32 14.327-32 32v381.867c0 17.673 14.327 32 32 32s32-14.327 32-32v-381.867c0-17.673-14.327-32-32-32zM318.884 467.136c-5.563 2.33-13.082 6.089-19.327 12.335-8.862 8.862-11.752 19.661-12.648 27.43-0.911 7.898-0.154 15.757 1.065 22.622 2.447 13.79 7.857 29.448 14.521 45.247 13.492 31.985 34.676 70.456 58.094 107.234 23.442 36.816 49.936 73.215 74.53 100.811 12.228 13.724 24.704 26.081 36.685 35.276 10.436 8.010 26.368 18.342 44.471 18.342 17.941 0 33.852-10.126 44.365-18.056 12.049-9.086 24.627-21.311 36.988-34.919 24.845-27.359 51.648-63.488 75.315-100.171 23.633-36.619 44.996-75.115 58.415-107.42 6.63-15.962 11.968-31.932 14.178-46.173 1.105-7.125 1.655-15.202 0.457-23.305-1.199-8.132-4.506-18.415-12.983-26.906l-0.017-0.013c-6.212-6.217-13.649-10.121-19.537-12.659-6.289-2.709-13.239-4.881-20.305-6.682-14.131-3.593-31.27-6.327-49.779-8.405-37.167-4.169-83.055-6.025-128.333-5.837-45.291 0.188-90.928 2.423-127.635 6.682-18.274 2.116-35.089 4.821-48.832 8.252-6.859 1.715-13.61 3.767-19.686 6.315zM681.647 523.328c-1.463 6.793-4.48 16.169-9.391 27.99-11.443 27.551-30.669 62.527-53.086 97.268-22.379 34.678-47.083 67.796-68.924 91.846-10.982 12.096-20.54 21.115-28.143 26.847-2.487 1.877-4.39 3.114-5.751 3.92-1.327-0.806-3.179-2.032-5.585-3.879-7.522-5.775-16.986-14.872-27.87-27.085-21.636-24.279-46.089-57.688-68.323-92.605-22.257-34.956-41.472-70.143-53.111-97.734-4.611-10.931-7.658-19.801-9.358-26.474 0.628-0.166 1.285-0.337 1.972-0.508 9.984-2.492 23.77-4.809 40.695-6.771 33.69-3.908 76.843-6.076 120.529-6.255 43.699-0.179 86.976 1.63 120.939 5.44 17.058 1.911 30.98 4.245 41.126 6.827 1.579 0.401 2.999 0.794 4.279 1.173zM342.229 526.814c0.002 0 0.045-0.021 0.125-0.068-0.087 0.043-0.127 0.068-0.125 0.068z" />
<glyph unicode="&#xe90b;" glyph-name="arrow-up-circle" d="M842.94 117.052c-71.159-71.159-181.188-95.714-330.953-95.714s-259.794 24.555-330.953 95.714c-71.159 71.159-95.714 181.188-95.714 330.953s24.556 259.794 95.714 330.953c71.159 71.159 181.189 95.714 330.953 95.714s259.793-24.556 330.953-95.714c71.159-71.158 95.714-181.188 95.714-330.953s-24.555-259.793-95.714-330.953zM797.683 162.308c52.181 52.177 76.971 139.482 76.971 285.696s-24.789 233.518-76.971 285.698c-52.177 52.18-139.482 76.969-285.696 76.969s-233.518-24.788-285.698-76.969c-52.18-52.18-76.969-139.483-76.969-285.698s24.789-233.519 76.969-285.696c52.18-52.181 139.483-76.971 285.698-76.971s233.519 24.789 285.696 76.971zM345.825 360.090c-14.576 9.993-18.291 29.914-8.298 44.489l26.393-18.095c-26.393 18.095-26.395 18.091-26.393 18.095l0.105 0.154 0.251 0.363 0.928 1.34c0.803 1.152 1.969 2.82 3.46 4.928 2.981 4.211 7.266 10.189 12.545 17.348 10.528 14.285 25.15 33.451 41.354 52.732 16.058 19.102 34.357 39.147 52.235 54.687 8.926 7.758 18.487 15.052 28.237 20.56 9.259 5.231 21.589 10.53 35.332 10.53s26.069-5.298 35.332-10.528c9.749-5.507 19.315-12.8 28.241-20.557 17.886-15.537 36.198-35.582 52.267-54.684 16.213-19.281 30.844-38.447 41.382-52.727 5.282-7.164 9.57-13.141 12.553-17.353 1.493-2.108 2.658-3.776 3.465-4.928l0.93-1.34 0.247-0.363 0.102-0.145c0-0.004 0.004-0.009-26.381-18.112l26.381 18.112c9.997-14.571 6.298-34.5-8.277-44.497-14.571-10.001-34.487-6.293-44.489 8.277 0 0 0.004-0.004 0 0l-0.235 0.341-0.798 1.148c-0.713 1.024-1.783 2.551-3.17 4.514-2.782 3.921-6.827 9.562-11.831 16.346-10.039 13.606-23.799 31.625-38.861 49.527-15.206 18.082-31.049 35.221-45.261 47.573-7.121 6.187-13.090 10.513-17.741 13.141-1.771 0.998-3.042 1.579-3.857 1.907-0.815-0.329-2.086-0.909-3.853-1.907-4.646-2.624-10.611-6.95-17.728-13.137-14.204-12.348-30.033-29.487-45.231-47.569-15.049-17.903-28.801-35.921-38.832-49.527-5.001-6.78-9.042-12.42-11.818-16.346-1.388-1.958-2.457-3.486-3.17-4.514l-0.986-1.421-0.040-0.060c-0.001 0 0.001 0.004 0 0zM345.825 360.090c14.575-9.993 34.497-6.268 44.492 8.303z" />
<glyph unicode="&#xe90c;" glyph-name="arrow-up-square" d="M512 241.668c-8.486 0-16.627 3.371-22.626 9.37-6.003 6.003-9.374 14.144-9.374 22.63v348.665c0 8.487 3.371 16.626 9.374 22.627 5.999 6.001 14.14 9.373 22.626 9.373s16.627-3.372 22.626-9.373c6.003-6.001 9.374-14.141 9.374-22.627v-348.665c0-8.486-3.371-16.627-9.374-22.63-5.999-5.999-14.14-9.37-22.626-9.37zM352.416 429.751c-6.464-0.073-12.797 1.818-18.167 5.414-3.492 2.342-6.488 5.346-8.818 8.849-2.33 3.499-3.948 7.424-4.76 11.546-0.813 4.126-0.804 8.371 0.024 12.493s2.461 8.038 4.805 11.529c0 0 27.572 41.195 62.333 82.918 17.381 20.861 36.568 41.925 56.25 58.917s38.46 32.917 67.917 32.917c29.457 0 48.218-15.845 67.917-32.834 19.695-16.989 38.848-38.14 56.247-59 34.807-41.719 62.502-82.918 62.502-82.918 2.342-3.49 3.977-7.407 4.804-11.529s0.836-8.367 0.026-12.493c-0.815-4.122-2.432-8.047-4.762-11.546-2.33-3.503-5.325-6.507-8.819-8.849-3.49-2.342-7.407-3.977-11.529-4.804s-8.367-0.836-12.493-0.026c-4.126 0.815-8.047 2.432-11.55 4.762-3.499 2.33-6.502 5.325-8.845 8.819 0 0-26.236 39.006-58.415 77.585-16.094 19.287-33.702 38.375-48.917 51.498s-29.513 17.333-26.167 17.333c3.345 0-10.884-4.213-26.082-17.333s-32.764-32.129-48.836-51.417c-32.139-38.575-58.415-77.666-58.415-77.666-2.896-4.314-6.8-7.859-11.373-10.33-4.574-2.466-9.68-3.785-14.877-3.836v0zM512 21.333c-151.546 0-260.198 25.033-330.917 95.748-70.719 70.72-95.75 179.371-95.75 330.918s25.031 260.198 95.75 330.917 179.371 95.75 330.917 95.75c151.548 0 260.198-25.031 330.918-95.75 70.716-70.719 95.748-179.371 95.748-330.917 0-151.548-25.033-260.198-95.748-330.918-70.72-70.716-179.371-95.748-330.918-95.748zM512 85.333c144.431 0 233.045 24.38 285.666 77.001s77.001 141.235 77.001 285.666c0 144.433-24.38 233.047-77.001 285.667s-141.235 77-285.666 77c-144.433 0-233.047-24.381-285.667-77s-77-141.234-77-285.667c0-144.431 24.381-233.045 77-285.666s141.234-77.001 285.667-77.001z" />
<glyph unicode="&#xe90d;" glyph-name="arrow-up" d="M500.297 106.671c-17.673 0-32 14.327-32 32v640c0 17.673 14.327 32 32 32s32-14.327 32-32v-640c0-17.673-14.327-32-32-32zM228.068 492.356c-15.557 8.384-21.371 27.793-12.986 43.351l28.169-15.183c-28.169 15.183-28.172 15.176-28.169 15.183l0.047 0.086 0.097 0.18 0.346 0.634 1.282 2.327c1.112 2.006 2.733 4.902 4.825 8.561 4.181 7.315 10.252 17.696 17.897 30.127 15.254 24.8 36.956 58.043 62.586 91.447 25.484 33.215 55.641 67.631 87.953 94.033 31.553 25.783 69.546 47.554 110.118 47.554 40.585 0 78.596-21.764 110.165-47.549 32.329-26.403 62.502-60.818 87.996-94.033 25.643-33.405 47.351-66.649 62.613-91.448 7.646-12.431 13.722-22.813 17.903-30.127 2.091-3.659 3.716-6.555 4.826-8.561l1.284-2.327 0.474-0.87c0-0.007 0.013-0.031-28.151-15.217l28.151 15.217c8.384-15.555 2.59-34.998-12.966-43.386-15.552-8.384-34.957-2.577-43.349 12.975 0 0 0.004-0.004 0 0l-0.060 0.115-0.26 0.474-1.097 1.988c-0.981 1.775-2.466 4.425-4.407 7.825-3.891 6.801-9.613 16.585-16.853 28.355-14.524 23.6-34.978 54.889-58.871 86.019-24.043 31.318-50.778 61.436-77.713 83.433-27.691 22.616-51.302 33.118-69.683 33.118-18.351 0-41.941-10.496-69.623-33.113-26.918-21.997-53.641-52.114-77.672-83.433-23.884-31.129-44.332-62.419-58.849-86.019-7.239-11.77-12.96-21.553-16.847-28.355-1.943-3.401-3.427-6.050-4.41-7.825l-1.353-2.462-0.055-0.102c-0.001 0 0.001 0.004 0 0zM228.068 492.356c15.555-8.384 34.968-2.56 43.356 12.992z" />
<glyph unicode="&#xe90e;" glyph-name="bag-2" d="M317.35 686.041c0.256 106.758 86.972 193.109 193.766 192.905 106.748-0.256 193.114-87.002 192.879-193.748 0-0.012 0 0.012 0 0v-129.324c0-17.673-14.327-32-32-32s-32 14.327-32 32v129.442c0.171 71.409-57.591 129.451-128.998 129.631-71.45 0.128-129.457-57.626-129.647-129.022v-130.050c0-17.673-14.327-32-32-32s-32 14.327-32 32v130.167zM229.771 563.91c-48.512-37.971-71.904-100.733-71.904-210.097 0-109.342 23.392-172.092 71.903-210.057 50.946-39.872 137.31-59.085 280.908-59.085s229.961 19.213 280.909 59.085c48.508 37.965 71.902 100.715 71.902 210.057 0 109.363-23.394 172.126-71.906 210.097-50.944 39.874-137.306 59.087-280.905 59.087s-229.961-19.213-280.906-59.087zM190.325 614.309c69.311 54.249 175.353 72.689 320.352 72.689s251.042-18.44 320.354-72.689c71.744-56.154 96.457-143.981 96.457-260.495 0-116.493-24.713-204.309-96.461-260.459-69.308-54.242-175.351-72.683-320.35-72.683s-251.041 18.441-320.351 72.683c-71.745 56.149-96.46 143.966-96.46 260.459 0 116.514 24.713 204.342 96.458 260.495z" />
<glyph unicode="&#xe90f;" glyph-name="bag" d="M296.739 667.842c0.551 119.434 97.745 215.873 217.203 215.362 119.445-0.040 216.247-96.869 216.247-216.32 0-17.673-14.327-32-32-32s-32 14.327-32 32c0 84.129-68.19 152.32-152.32 152.32h-0.149c-84.087 0.387-152.556-67.472-152.981-151.587v-0.733c0-17.673-14.327-32-32-32s-32 14.327-32 32v0.958zM604.873 474.718c0 17.673 14.327 32 32 32h1.963c17.673 0 32-14.327 32-32s-14.327-32-32-32h-1.963c-17.673 0-32 14.327-32 32zM356.079 474.718c0 17.673 14.327 32 32 32h1.963c17.673 0 32-14.327 32-32s-14.327-32-32-32h-1.963c-17.673 0-32 14.327-32 32zM208.345 583.139c-48.028-39.134-65.719-102.78-35.958-213.099h0.001c15.65-58.027 28.902-105.097 44.23-143.846 15.234-38.511 31.759-66.743 52.792-87.889 41.010-41.225 107.037-63.189 244.049-63.189s203.038 21.965 244.049 63.189c21.035 21.146 37.559 49.378 52.791 87.889 15.33 38.75 28.582 85.82 44.233 143.846v0c29.76 110.319 12.070 173.965-35.959 213.099-52.787 43.012-151.113 65.16-305.114 65.16-154.003 0-252.327-22.147-305.114-65.16zM167.918 632.753c71.575 58.321 190.51 79.545 345.542 79.545 155.034 0 273.967-21.224 345.54-79.545 76.335-62.199 90.112-157.848 57.323-279.384-15.518-57.532-29.636-108.066-46.507-150.72-16.969-42.893-37.478-79.868-66.931-109.478-59.972-60.288-148.762-82.057-289.425-82.057s-229.452 21.769-289.423 82.057c-29.457 29.611-49.964 66.586-66.932 109.478-16.873 42.654-30.991 93.188-46.509 150.72zM167.918 632.753c-76.334-62.198-90.11-157.844-57.323-279.38z" />
<glyph unicode="&#xe910;" glyph-name="bookmark" d="M332.478 566.711c0 17.673 14.327 32 32 32h292.478c17.677 0 32-14.327 32-32s-14.323-32-32-32h-292.478c-17.673 0-32 14.327-32 32zM339.575 873.472c46.056 9.425 102.831 11.861 171.153 11.861 68.326 0 125.103-2.435 171.157-11.861 46.635-9.544 85.069-26.799 113.946-58.432 28.535-31.26 44.412-72.957 53.513-124.657 9.084-51.608 11.934-116.404 11.934-196.687 0-30.985 0.055-60.075 0.102-87.364 0.235-129.054 0.397-217.775-5.423-275.639-3.473-34.526-9.459-63.829-22.622-84.877-7.078-11.319-16.482-20.698-28.689-26.944-11.989-6.135-24.649-8.205-36.766-8.205-27.678 0-54.519 15.228-76.186 30.281-21.15 14.694-43.413 33.724-64.469 51.716-1.668 1.425-3.328 2.846-4.983 4.258-23.249 19.844-45.086 38.165-65.579 51.618-21.257 13.956-36.198 19.311-45.935 19.311-9.732 0-24.674-5.355-45.931-19.311-20.493-13.453-42.33-31.774-65.58-51.618-1.653-1.412-3.314-2.833-4.983-4.258-21.054-17.993-43.318-37.022-64.468-51.716-21.665-15.053-48.506-30.281-76.187-30.281-12.116 0-24.775 2.069-36.764 8.205-12.208 6.246-21.609 15.625-28.689 26.944-13.164 21.047-19.15 50.351-22.622 84.877-5.818 57.865-5.658 146.586-5.425 275.639 0.049 27.29 0.102 56.38 0.102 87.364 0 80.283 2.852 145.079 11.936 196.687 9.101 51.7 24.977 93.397 53.513 124.657 28.876 31.633 67.311 48.888 113.946 58.432zM235.148 679.288c-8.064-45.812-10.967-105.939-10.967-185.592 0-31.74-0.050-61.303-0.097-88.832-0.219-129.097-0.362-213.461 5.099-267.767 3.366-33.472 8.472-49.779 13.204-57.348 1.869-2.987 3.116-3.665 3.576-3.9 0.678-0.35 2.707-1.182 7.615-1.182 6.345 0 18.918 4.42 39.668 18.837 18.395 12.783 38.295 29.781 60.143 48.439 1.417 1.212 2.843 2.432 4.277 3.652 22.788 19.452 47.607 40.427 72.003 56.444 23.637 15.518 51.819 29.811 81.058 29.811 29.244 0 57.425-14.293 81.062-29.811 24.397-16.017 49.216-36.992 72.004-56.444 1.434-1.22 2.859-2.441 4.275-3.648 21.85-18.662 41.749-35.661 60.143-48.444 20.753-14.417 33.323-18.837 39.667-18.837 4.911 0 6.938 0.832 7.616 1.182 0.461 0.235 1.707 0.913 3.575 3.9 4.732 7.569 9.839 23.876 13.205 57.348 5.461 54.306 5.321 138.671 5.099 267.772-0.047 27.529-0.098 57.088-0.098 88.828 0 79.653-2.901 139.78-10.965 185.592-8.047 45.719-20.71 73.94-37.747 92.605-16.7 18.292-40.87 30.971-79.509 38.879-39.223 8.026-90.394 10.562-158.327 10.562-67.93 0-119.101-2.535-158.321-10.562-38.641-7.908-62.811-20.587-79.509-38.879-17.038-18.665-29.702-46.886-37.75-92.605z" />
<glyph unicode="&#xe911;" glyph-name="buy" d="M124.093 843.12c2.611 17.479 18.898 29.532 36.377 26.921l-4.728-31.649c4.728 31.649 4.743 31.647 4.758 31.645l0.031-0.005 0.231-0.036 0.425-0.068 1.235-0.213c0.988-0.178 2.304-0.432 3.9-0.776 3.184-0.687 7.535-1.745 12.665-3.305 10.139-3.084 23.962-8.323 37.99-16.986 28.701-17.724 59.121-50.836 57.984-105.95 0.126-5.467 0.164-11.046 0.126-16.719 105.705 22.81 219.338 33.292 317.062 30.523 55.057-1.56 106.082-7.35 148.288-17.996 40.99-10.339 78.78-26.49 101.67-52.556 21.474-24.453 35.17-60.011 43.516-96.973 8.521-37.748 12.258-80.568 11.354-122.74-0.905-42.138-6.464-84.779-17.233-122.048-10.547-36.514-27.14-71.561-52.736-94.434-25.737-23.010-67.938-37.525-112.316-46.758-45.918-9.553-99.925-14.562-154.287-14.98-54.391-0.418-110.135 3.755-159.546 13.035-48.597 9.131-94.406 23.799-126.287 46.494l-0.007 0.004c-35.735 25.451-55.657 63.070-66.474 103.761-10.747 40.422-13.176 86.255-12.268 131.913 0.835 41.95 4.561 85.623 8.068 126.723 0.32 3.749 0.638 7.477 0.952 11.18 3.814 44.992 6.976 86.027 6.119 120.778-0.013 0.544-0.013 1.089 0.001 1.634 0.706 26.721-12.313 41.21-27.614 50.659-8.047 4.969-16.434 8.216-22.988 10.209-3.216 0.978-5.832 1.607-7.527 1.972-0.844 0.182-1.446 0.296-1.766 0.353l-0.246 0.043c-17.376 2.701-29.332 18.932-26.729 36.348zM272.126 659.745c-1.041-14.546-2.263-29.292-3.511-44.027-0.308-3.63-0.617-7.263-0.927-10.896-3.539-41.513-7.086-83.128-7.877-122.877-0.862-43.345 1.642-82.257 10.132-114.193 8.418-31.667 22.036-54.033 41.743-68.070 20.599-14.66 55.564-27.196 100.991-35.733 44.613-8.38 96.145-12.331 147.235-11.938 51.119 0.393 100.804 5.129 141.743 13.645 42.475 8.836 70.289 20.715 82.697 31.812l0.009 0.004c12.574 11.238 24.768 32.858 33.899 64.474 8.917 30.861 13.922 67.823 14.733 105.664 0.811 37.811-2.59 75.356-9.796 107.272-7.381 32.703-18.001 56.11-29.175 68.836-9.762 11.113-31.782 23.284-69.235 32.731-36.237 9.14-82.295 14.601-134.447 16.078-97.596 2.765-212.96-8.506-318.21-32.782zM571.994 502.622c0 17.673 14.327 32 32 32h118.315c17.673 0 32-14.328 32-32s-14.327-32-32-32h-118.315c-17.673 0-32 14.327-32 32zM309.931 101.227c12.8 0 23.211-10.411 23.211-23.211 0-12.843-10.411-23.253-23.211-23.253-12.843 0-23.253 10.411-23.253 23.253 0 12.8 10.411 23.211 23.253 23.211zM309.931 69.227c4.792 0 8.747 3.878 8.747 8.789 0 4.83-3.916 8.747-8.747 8.747-4.911 0-8.789-3.955-8.789-8.747 0-4.873 3.916-8.789 8.789-8.789zM254.677 78.016c0 30.511 24.776 55.211 55.253 55.211 30.473 0 55.211-24.738 55.211-55.211 0-30.477-24.699-55.253-55.211-55.253-30.516 0-55.253 24.738-55.253 55.253zM750.741 101.227c12.843 0 23.253-10.411 23.253-23.211 0-12.843-10.411-23.253-23.253-23.253-12.8 0-23.211 10.411-23.211 23.253 0 12.8 10.411 23.211 23.211 23.211zM750.741 69.227c4.873 0 8.789 3.917 8.789 8.789 0 4.791-3.878 8.747-8.789 8.747-4.83 0-8.747-3.917-8.747-8.747 0-4.911 3.955-8.789 8.747-8.789zM695.531 78.016c0 30.473 24.738 55.211 55.211 55.211 30.477 0 55.253-24.7 55.253-55.211 0-30.515-24.738-55.253-55.253-55.253-30.511 0-55.211 24.777-55.211 55.253z" />
<glyph unicode="&#xe912;" glyph-name="calendar" d="M226.516 701.42c-52.338-52.334-77.192-139.892-77.192-286.512 0-146.624 24.853-234.18 77.192-286.515s139.898-77.175 286.499-77.175c146.624 0 234.193 24.841 286.537 77.18 52.343 52.331 77.197 139.887 77.197 286.511 0 146.621-24.853 234.177-77.197 286.511-52.343 52.335-139.913 77.178-286.537 77.178-146.601 0-234.159-24.843-286.499-77.178zM181.264 746.677c71.319 71.313 181.606 95.921 331.752 95.921 150.165 0 260.463-24.607 331.789-95.92s95.945-181.603 95.945-331.77c0-150.17-24.619-260.459-95.945-331.772s-181.623-95.919-331.789-95.919c-150.145 0-260.432 24.606-331.752 95.919s-95.939 181.602-95.939 331.772c0 150.167 24.619 260.455 95.939 331.769zM97.075 562.176c0 17.673 14.327 32 32 32h768.341c17.673 0 32-14.327 32-32s-14.327-32-32-32h-768.341c-17.673 0-32 14.327-32 32zM668.949 394.197c0 17.673 14.327 32 32 32h0.384c17.673 0 32-14.327 32-32s-14.327-32-32-32h-0.384c-17.673 0-32 14.327-32 32zM481.242 394.197c0 17.673 14.327 32 32 32h0.384c17.673 0 32-14.327 32-32s-14.327-32-32-32h-0.384c-17.673 0-32 14.327-32 32zM293.18 394.197c0 17.673 14.327 32 32 32h0.384c17.673 0 32-14.327 32-32s-14.327-32-32-32h-0.384c-17.673 0-32 14.327-32 32zM668.949 229.845c0 17.673 14.327 32 32 32h0.384c17.673 0 32-14.327 32-32s-14.327-32-32-32h-0.384c-17.673 0-32 14.327-32 32zM481.242 229.845c0 17.673 14.327 32 32 32h0.384c17.673 0 32-14.327 32-32s-14.327-32-32-32h-0.384c-17.673 0-32 14.327-32 32zM293.18 229.845c0 17.673 14.327 32 32 32h0.384c17.673 0 32-14.327 32-32s-14.327-32-32-32h-0.384c-17.673 0-32 14.327-32 32zM684.075 904.529c17.673 0 32-14.327 32-32v-139.179c0-17.673-14.327-32-32-32s-32 14.327-32 32v139.179c0 17.673 14.327 32 32 32zM342.387 904.529c17.673 0 32-14.327 32-32v-139.179c0-17.673-14.327-32-32-32s-32 14.327-32 32v139.179c0 17.673 14.327 32 32 32z" />
<glyph unicode="&#xe913;" glyph-name="call-missed" d="M932.634 865.298c12.497-12.497 12.497-32.758 0-45.255l-256-256c-12.497-12.497-32.755-12.497-45.252 0s-12.497 32.758 0 45.255l256 256c12.497 12.497 32.755 12.497 45.252 0zM631.381 865.298c12.497 12.497 32.755 12.497 45.252 0l256-256c12.497-12.497 12.497-32.758 0-45.255s-32.755-12.497-45.252 0l-256 256c-12.497 12.497-12.497 32.758 0 45.255zM135.223 721.757c-0.191-0.285-0.264-0.393-0.215-0.308-0.557-0.986-1.167-1.943-1.825-2.865-9.543-13.354-26.45-47.636-6.666-114.554 20.293-68.637 79.277-171.421 224.687-316.829 145.412-145.408 248.192-204.395 316.829-224.687 66.918-19.785 101.197-2.876 114.551 6.665 0.883 0.631 1.792 1.212 2.731 1.749-0.060-0.034 0.026 0.021 0.243 0.171 1.54 1.028 9.685 6.464 20.565 15.714 12.16 10.342 26.372 24.311 37.734 40.482 11.443 16.286 18.769 33.050 19.968 49.404 1.122 15.326-2.884 33.229-19.618 53.67-52.907 64.222-86.234 86.118-107.494 92.433-18.313 5.436-31.676 0.717-54.404-10.287-1.527-0.738-3.11-1.515-4.749-2.321-21.457-10.539-52.041-25.557-91.405-20.629-41.911 5.244-87.471 31.71-144.154 88.393-56.69 56.691-83.163 102.255-88.411 144.171-4.93 39.374 10.090 69.962 20.629 91.425 0.803 1.636 1.58 3.219 2.321 4.748 11.001 22.729 15.72 36.095 10.282 54.406-6.314 21.263-28.219 54.591-92.461 107.507-20.436 16.726-38.337 20.73-53.67 19.608-16.355-1.197-33.126-8.526-49.415-19.97-16.17-11.36-30.141-25.572-40.477-37.73-9.077-10.675-14.436-18.666-15.576-20.367zM236.020 863.654c32.831 2.403 66.703-7.56 98.927-33.952l0.068-0.055c66.419-54.703 101.154-98.288 113.161-138.72 12.885-43.386-2.406-76.495-14.029-100.506-0.256-0.529-0.508-1.054-0.759-1.574-11.716-24.193-18.792-38.804-16.292-58.764 2.61-20.847 17.090-53.798 70.163-106.871 53.060-53.060 86.003-67.533 106.842-70.144 19.955-2.496 34.56 4.578 58.748 16.294 0.525 0.252 1.050 0.508 1.579 0.764 24.009 11.622 57.114 26.91 100.501 14.029 40.431-11.998 84.015-46.729 138.718-113.139l0.060-0.068c26.389-32.222 36.352-66.091 33.95-98.923-2.33-31.812-16.026-59.597-31.433-81.523-28.207-40.141-67.021-67.524-77.321-74.022-30.31-21.274-84.915-40.201-169.015-15.334-83.213 24.602-194.999 91.866-343.938 240.802-148.938 148.941-216.204 260.727-240.806 343.94-24.86 84.086-5.944 138.687 15.325 169.001 6.644 10.558 34.012 49.229 74.018 77.336 21.931 15.408 49.719 29.103 81.535 31.432z" />
<glyph unicode="&#xe914;" glyph-name="call-silent" d="M135.148 721.703c-0.189-0.282-0.262-0.391-0.215-0.308-0.539-0.958-1.127-1.888-1.762-2.786-8.622-12.194-22.478-40.325-12.19-92.419 10.543-53.392 46.739-133.065 142.636-245.175 11.488-13.431 9.914-33.63-3.517-45.116-13.43-11.49-33.63-9.916-45.118 3.516-99.772 116.638-143.316 206.147-156.789 274.377-13.58 68.768 3.734 114.451 22.111 140.896 6.644 10.607 34.102 49.393 74.185 77.546 21.922 15.397 49.686 29.082 81.459 31.419 32.792 2.413 66.618-7.524 98.774-33.873l0.083-0.068c52.976-43.706 85.367-80 102.494-112.86 18.155-34.833 18.594-64.774 10.782-91.815-3.605-12.468-8.794-23.744-13.346-33.217-1.028-2.136-2.014-4.163-2.957-6.108-3.541-7.288-6.537-13.446-9.153-20.032-5.933-14.932-8.503-28.706-3.147-46.993 4.967-16.96-4.756-34.735-21.716-39.706-16.961-4.966-34.737 4.757-39.704 21.717-10.497 35.843-4.41 64.704 5.091 88.614 3.587 9.027 7.898 17.88 11.543 25.366 0.828 1.7 1.621 3.329 2.364 4.874 4.334 9.014 7.514 16.239 9.539 23.249 3.442 11.913 4.183 24.835-6.051 44.471-11.259 21.604-35.933 51.375-86.423 93.035-20.345 16.657-38.18 20.643-53.476 19.517-16.324-1.201-33.081-8.523-49.37-19.965-16.169-11.357-30.15-25.566-40.505-37.737-9.115-10.714-14.482-18.72-15.622-20.42zM449.929 414.131c12.262 12.727 32.521 13.107 45.248 0.845 50.458-48.597 81.583-60.74 101.205-62.421 18.679-1.6 32.585 5.111 55.279 16.073 1.481 0.717 3.004 1.451 4.565 2.202 24.286 11.682 57.199 26.031 100.211 12.681 39.957-12.403 83.106-47.027 137.101-112.555l0.055-0.064c26.432-32.247 36.45-66.125 34.065-98.97-2.308-31.838-16.026-59.614-31.467-81.527-28.113-39.893-66.803-67.17-77.555-73.907-29.888-21.188-83.703-39.791-166.242-16.043-81.865 23.561-191.718 88.589-337.783 232.828-12.575 12.416-12.703 32.678-0.285 45.252s32.679 12.702 45.254 0.286c142.456-140.676 243.239-197.5 310.516-216.862 65.638-18.889 99.179-2.197 112.038 7.113 0.986 0.717 2.014 1.378 3.081 1.975-0.068-0.038 0.026 0.026 0.265 0.183 1.6 1.062 9.728 6.455 20.591 15.65 12.198 10.321 26.436 24.256 37.803 40.388 11.452 16.247 18.769 32.973 19.955 49.297 1.109 15.3-2.906 33.225-19.708 53.734-52.177 63.313-85.325 85.474-106.658 92.096-18.274 5.67-31.642 1.28-53.495-9.233-1.899-0.913-3.887-1.89-5.965-2.914-20.582-10.142-49.993-24.631-87.091-21.449-41.126 3.529-85.487 27.456-140.134 80.094-12.727 12.258-13.107 32.516-0.849 45.248zM929.293 865.29c12.497-12.497 12.497-32.758 0-45.255l-789.332-789.332c-12.497-12.497-32.758-12.497-45.255 0s-12.497 32.755 0 45.252l789.335 789.335c12.497 12.497 32.755 12.497 45.252 0z" />
<glyph unicode="&#xe915;" glyph-name="call" d="M257.334 885c-31.887-2.335-59.246-15.779-81.5-31.416s-39.861-33.803-52.5-48.667c-6.319-7.432-11.362-14.106-15.083-19.25-2.808-3.882-4.179-5.909-5.833-8.583-0.039-0.055-0.044-0.195-0.084-0.25-20.615-28.972-40.535-86.044-15.833-169.583 24.749-83.7 91.33-194.561 240.75-344.001 149.443-149.436 260.287-216 343.999-240.751 83.443-24.666 140.48-4.873 169.502 15.753 2.876 1.749 4.975 3.089 8.998 5.999 5.141 3.721 11.738 8.768 19.166 15.083 14.861 12.634 33.033 30.246 48.67 52.501 15.633 22.255 29.082 49.609 31.415 81.498 2.334 31.893-8.060 67.247-34.001 98.918 0 0.030 0 0.055 0 0.085-55.68 67.605-97.609 100.949-138.748 113.165-41.143 12.215-76.305-2.372-100.501-14.084s-39.287-19.631-60.335-16.998c-21.047 2.633-54.528 17.877-106.833 70.165-52.288 52.301-67.533 85.786-70.165 106.834s5.372 36.134 17.084 60.333c11.708 24.199 26.223 59.354 13.999 100.5s-45.548 83.061-113.166 138.75c-0.028 0-0.055 0-0.083 0-31.661 25.94-67.030 36.335-98.917 34zM262 821.167c16.276 1.192 32.674-2.467 53.667-19.667 63.011-51.908 86.397-86.956 92.5-107.5 6.106-20.553 0.575-31.792-10.333-54.333s-28.137-54.451-22.917-96.166c5.22-41.714 30.963-86.702 88.417-144.166 0-0.030 0-0.055 0-0.085 57.463-57.451 102.451-83.115 144.166-88.333s73.626 12.006 96.166 22.916c22.541 10.91 33.873 16.435 54.417 10.334s55.565-29.44 107.499-92.501c17.122-20.945 20.774-37.414 19.584-53.666-1.19-16.282-8.781-33.451-19.998-49.417-11.221-15.966-25.771-30.229-37.751-40.414-5.99-5.094-11.268-9.182-15.168-12.002s-8.452-5.5-5.5-3.831c-0.977-0.563-1.92-1.173-2.833-1.835-14.502-10.377-46.43-26.816-114.581-6.669-68.156 20.147-171.921 79.757-316.835 224.67-144.894 144.909-204.519 248.692-224.667 316.832s-3.702 100.068 6.667 114.583c0.63 0.887 1.214 1.804 1.75 2.75-1.593-2.806 1.008 1.595 3.833 5.5s6.987 9.256 12.083 15.25c10.193 11.988 24.449 26.53 40.417 37.75s33.141 18.808 49.417 20z" />
<glyph unicode="&#xe916;" glyph-name="calling" d="M612.834 874.667c-7.957 0.11-15.671-2.749-21.632-8.018-5.965-5.269-9.749-12.572-10.62-20.481-0.934-8.431 1.515-16.889 6.814-23.514 5.295-6.626 13.005-10.877 21.436-11.819 143.223-15.905 256.068-128.524 272.166-271.75 0.943-8.43 5.197-16.144 11.819-21.439 6.626-5.299 15.087-7.748 23.518-6.81s16.141 5.193 21.436 11.819c5.299 6.626 7.748 15.082 6.814 23.513-19.401 172.593-156.070 309.166-328.666 328.333-1.028 0.105-2.057 0.161-3.085 0.166v0zM612.335 723.5c-7.42-0.019-14.601-2.615-20.314-7.342-5.717-4.727-9.613-11.293-11.021-18.575-1.617-8.32 0.137-16.942 4.868-23.972 4.736-7.031 12.066-11.896 20.382-13.528 62.844-12.207 111.834-61.129 124.083-124 0.798-4.124 2.402-8.053 4.719-11.561 2.317-3.503 5.303-6.519 8.785-8.875 3.482-2.351 7.394-3.994 11.511-4.834s8.358-0.862 12.484-0.064c8.316 1.634 15.646 6.498 20.382 13.53 4.732 7.027 6.485 15.65 4.868 23.971-17.195 88.255-86.302 157.519-174.583 174.667-2.031 0.393-4.096 0.589-6.165 0.583v0zM236 863.666c-31.887-2.335-59.246-15.779-81.5-31.416s-39.861-33.803-52.5-48.667c-6.319-7.432-11.362-14.106-15.083-19.25-2.808-3.882-4.179-5.909-5.833-8.583-0.039-0.055-0.044-0.195-0.084-0.25-20.615-28.972-40.535-86.044-15.833-169.583 24.749-83.7 91.33-194.561 240.75-344.001 149.443-149.436 260.287-216 343.999-240.751 83.443-24.666 140.48-4.873 169.502 15.753 2.876 1.749 4.975 3.089 8.998 5.999 5.141 3.721 11.738 8.768 19.166 15.083 14.861 12.634 33.033 30.246 48.67 52.501 15.633 22.255 29.082 49.609 31.415 81.498 2.334 31.893-8.060 67.247-34.001 98.918 0 0.030 0 0.055 0 0.085-55.689 67.601-97.604 100.949-138.748 113.165s-76.309-2.372-100.501-14.084c-24.192-11.712-39.292-19.631-60.335-16.998s-54.528 17.877-106.833 70.165c-52.288 52.301-67.532 85.786-70.165 106.833s5.373 36.135 17.084 60.335c11.708 24.199 26.223 59.354 13.999 100.5s-45.548 83.061-113.166 138.75c-0.028 0-0.055 0-0.083 0-31.661 25.94-67.030 36.335-98.917 34zM240.667 799.833c16.276 1.192 32.674-2.467 53.667-19.667 63.011-51.908 86.397-86.956 92.5-107.5 6.106-20.553 0.575-31.792-10.333-54.333s-28.137-54.451-22.917-96.166c5.22-41.715 30.963-86.703 88.417-144.166 0-0.030 0-0.055 0-0.085 57.463-57.451 102.451-83.115 144.166-88.333 41.711-5.218 73.63 12.006 96.166 22.916s33.869 16.435 54.417 10.334c20.548-6.101 55.552-29.44 107.499-92.501 17.122-20.945 20.774-37.414 19.584-53.666-1.19-16.282-8.781-33.451-19.998-49.417-11.221-15.966-25.771-30.229-37.751-40.414-5.99-5.094-11.268-9.182-15.168-12.002s-8.452-5.5-5.5-3.831c-0.977-0.563-1.92-1.173-2.833-1.835-14.502-10.377-46.43-26.816-114.581-6.669-68.156 20.147-171.921 79.757-316.835 224.67-144.894 144.909-204.519 248.692-224.667 316.832s-3.702 100.068 6.667 114.583c0.63 0.887 1.214 1.804 1.75 2.75-1.593-2.806 1.008 1.595 3.833 5.5s6.987 9.256 12.083 15.25c10.193 11.988 24.449 26.53 40.417 37.75s33.141 18.808 49.417 20z" />
<glyph unicode="&#xe917;" glyph-name="camera" d="M358.297 426.748c0 91.776 74.42 166.198 166.196 166.198 91.78 0 166.199-74.422 166.199-166.198 0-91.78-74.419-166.199-166.199-166.199-91.776 0-166.196 74.419-166.196 166.199zM524.493 528.947c-56.431 0-102.196-45.769-102.196-102.199s45.765-102.199 102.196-102.199c56.435 0 102.199 45.769 102.199 102.199s-45.764 102.199-102.199 102.199zM602.001 858.953c22.345-2.143 45.069-5.673 60.463-12.146l0.026-0.012c31.407-13.243 49.459-40.608 60.715-61.027 3.972-7.206 7.821-14.976 11.021-21.439 1.306-2.637 2.505-5.057 3.558-7.132 4.425-8.701 6.741-12.18 7.77-13.307l0.043-0.049c6.161-6.777 14.012-11.208 21.41-13.624 71.287-19.817 117.615-54.557 143.898-109.643 24.866-52.119 29.713-118.742 29.713-196.741 0-110.455-9.195-205.001-72.623-268.958-63.078-63.603-171.379-88.747-343.514-88.747s-280.432 25.143-343.512 88.747c-63.427 63.957-72.622 158.502-72.622 268.958 0 77.999 4.845 144.622 29.713 196.741 26.285 55.091 72.616 89.832 143.916 109.648 7.39 2.403 15.209 6.819 21.389 13.619l0.044 0.049c1.050 1.151 3.411 4.701 7.902 13.485 1.080 2.113 2.307 4.575 3.641 7.255 3.236 6.496 7.11 14.274 11.095 21.48 11.227 20.301 29.366 47.972 60.736 60.815l0.039 0.016c15.050 6.138 37.474 9.615 59.715 11.781 23.424 2.282 50.645 3.438 77.632 3.49 26.974 0.052 54.272-0.998 77.833-3.258zM411.008 787.686c-9.762-4.006-18.879-14.33-28.955-32.55-3.316-5.996-6.081-11.554-9.006-17.435-1.509-3.032-3.060-6.151-4.752-9.46-4.175-8.168-9.981-19.12-17.586-27.465-15.156-16.669-33.538-26.577-49.989-31.753-0.36-0.113-0.722-0.22-1.085-0.32-58.457-16.143-87.318-41.117-103.814-75.689-17.99-37.706-23.475-90.977-23.475-169.181 0-112.401 11.24-180.71 54.064-223.889 43.171-43.533 126.941-69.815 298.069-69.815 171.132 0 254.899 26.283 298.069 69.815 42.825 43.179 54.067 111.488 54.067 223.889 0 78.204-5.487 131.475-23.475 169.181-16.495 34.573-45.355 59.546-103.812 75.689-0.375 0.103-0.751 0.214-1.118 0.331-16.35 5.163-34.782 15.053-49.954 31.74-7.629 8.368-13.393 19.293-17.523 27.418-1.664 3.278-3.191 6.362-4.672 9.359-2.893 5.846-5.619 11.358-8.905 17.321-9.873 17.908-19.076 28.538-29.525 32.948-5.547 2.328-19.529 5.296-41.741 7.426-21.018 2.016-46.17 3.014-71.599 2.965-25.425-0.049-50.569-1.144-71.552-3.188-22.153-2.157-36.178-5.076-41.732-7.336zM702.059 576c0 17.673 14.327 32 32 32h0.384c17.673 0 32-14.327 32-32s-14.327-32-32-32h-0.384c-17.673 0-32 14.327-32 32z" />
<glyph unicode="&#xe918;" glyph-name="category" d="M739.268 800c-68.873 0-124.71-55.858-124.71-124.749s55.838-124.749 124.71-124.749c68.877 0 124.749 55.868 124.749 124.749s-55.872 124.749-124.749 124.749zM550.558 675.251c0 104.216 84.471 188.749 188.71 188.749 104.226 0 188.749-84.522 188.749-188.749s-84.523-188.749-188.749-188.749c-104.239 0-188.71 84.532-188.71 188.749zM284.71 800c-68.837 0-124.71-55.863-124.71-124.749s55.873-124.749 124.71-124.749c68.914 0 124.749 55.863 124.749 124.749s-55.835 124.749-124.749 124.749zM96 675.251c0 104.221 84.517 188.749 188.71 188.749 104.27 0 188.749-84.527 188.749-188.749s-84.479-188.749-188.749-188.749c-104.193 0-188.71 84.527-188.71 188.749zM739.268 348.241c-68.873 0-124.71-55.859-124.71-124.749 0-68.881 55.829-124.71 124.71-124.71 68.89 0 124.749 55.838 124.749 124.71 0 68.881-55.872 124.749-124.749 124.749zM550.558 223.492c0 104.213 84.471 188.749 188.71 188.749 104.226 0 188.749-84.523 188.749-188.749 0-104.239-84.535-188.71-188.749-188.71-104.23 0-188.71 84.484-188.71 188.71zM284.71 348.241c-68.837 0-124.71-55.863-124.71-124.749 0-68.877 55.863-124.71 124.71-124.71 68.924 0 124.749 55.834 124.749 124.71 0 68.885-55.835 124.749-124.749 124.749zM96 223.492c0 104.222 84.517 188.749 188.71 188.749 104.27 0 188.749-84.527 188.749-188.749 0-104.235-84.489-188.71-188.749-188.71-104.183 0-188.71 84.476-188.71 188.71z" />
<glyph unicode="&#xe919;" glyph-name="chart" d="M319.277 554.2c17.673 0 32-14.327 32-31.999v-285.598c0-17.673-14.327-32-32-32s-32 14.327-32 32v285.598c0 17.672 14.327 31.999 32 31.999zM513.57 690.887c17.677 0 32-14.327 32-32v-422.309c0-17.677-14.323-32-32-32-17.673 0-32 14.323-32 32v422.309c0 17.673 14.327 32 32 32zM704.67 403.277c17.673 0 32-14.327 32-32v-134.69c0-17.673-14.327-32-32-32s-32 14.327-32 32v134.69c0 17.673 14.327 32 32 32zM211.646 748.354c-55.426-55.426-81.513-147.922-81.513-301.924 0-154.005 26.087-246.502 81.513-301.926 55.426-55.428 147.922-81.515 301.924-81.515 154.005 0 246.502 26.086 301.926 81.515 55.428 55.424 81.515 147.921 81.515 301.926 0 154.002-26.086 246.499-81.515 301.924-55.424 55.426-147.921 81.513-301.926 81.513-154.001 0-246.498-26.087-301.924-81.513zM166.391 793.609c74.404 74.404 189.627 100.258 347.179 100.258 157.555 0 272.777-25.854 347.183-100.258 74.402-74.404 100.258-189.627 100.258-347.179 0-157.555-25.856-272.777-100.258-347.183-74.406-74.402-189.628-100.258-347.183-100.258-157.551 0-272.774 25.856-347.179 100.258-74.404 74.406-100.258 189.628-100.258 347.183 0 157.552 25.854 272.775 100.258 347.179z" />
<glyph unicode="&#xe91a;" glyph-name="chat" d="M637.414 430.379c0 23.565 19.102 42.667 42.667 42.667h0.384c23.565 0 42.667-19.102 42.667-42.667s-19.102-42.667-42.667-42.667h-0.384c-23.565 0-42.667 19.102-42.667 42.667zM466.364 430.379c0 23.565 19.102 42.667 42.667 42.667h0.384c23.565 0 42.667-19.102 42.667-42.667s-19.102-42.667-42.667-42.667h-0.384c-23.565 0-42.667 19.102-42.667 42.667zM295.313 430.379c0 23.565 19.103 42.667 42.667 42.667h0.384c23.564 0 42.667-19.102 42.667-42.667s-19.102-42.667-42.667-42.667h-0.384c-23.564 0-42.667 19.102-42.667 42.667zM791.066 727.154l0.004-0.006c154.283-154.261 153.975-404.17 0-558.171h-0.004c-120.525-120.585-299.149-146.735-445.417-79.091-0.488 0.226-0.982 0.439-1.481 0.64-9.768 3.934-20.839 3.849-27.101 3.669-7.862-0.218-16.921-1.088-26.135-2.159-8.716-1.015-18.319-2.304-28.081-3.614l-2.015-0.269c-10.574-1.417-21.427-2.863-32.297-4.122-22.045-2.556-42.634-4.164-59.104-3.452-8.208 0.358-14.29 1.254-18.46 2.398-1.405 0.384-2.371 0.738-2.995 0.998-0.261 0.623-0.614 1.591-1 2.995-1.146 4.169-2.043 10.249-2.399 18.458-0.715 16.469 0.892 37.060 3.45 59.106 1.261 10.871 2.706 21.726 4.126 32.299l0.272 2.031c1.311 9.758 2.6 19.358 3.615 28.070 1.073 9.216 1.943 18.274 2.166 26.138 0.177 6.263 0.265 17.335-3.667 27.106-0.202 0.503-0.417 0.998-0.644 1.489-67.671 146.24-41.487 324.931 79.084 445.479l0.007 0.006c153.956 154.017 404.124 154.017 558.078 0zM836.322 772.406c-178.953 179.016-469.649 179.014-648.599-0.006-139.266-139.244-170.039-345.085-93.481-514.177 0.023-0.747 0.033-1.839-0.009-3.341-0.141-4.988-0.744-11.81-1.762-20.54-0.947-8.132-2.164-17.199-3.5-27.145l-0.248-1.847c-1.416-10.551-2.933-21.926-4.268-33.438-2.635-22.711-4.762-47.475-3.816-69.257 0.474-10.923 1.755-22.195 4.628-32.644 2.807-10.214 7.773-22.007 17.26-31.497l0.015-0.013c9.489-9.481 21.28-14.438 31.488-17.242 10.448-2.867 21.717-4.147 32.634-4.621 21.78-0.943 46.535 1.182 69.244 3.819 11.508 1.331 22.883 2.846 33.432 4.262l1.831 0.243c9.949 1.335 19.020 2.551 27.155 3.499 8.731 1.015 15.55 1.617 20.537 1.758 1.503 0.043 2.598 0.034 3.346 0.009 169.105-76.523 374.882-45.798 514.116 93.5 178.931 178.953 179.311 469.385-0.004 648.677z" />
<glyph unicode="&#xe91b;" glyph-name="close-square" d="M636.774 573.25c12.497-12.497 12.497-32.758 0-45.254l-204.459-204.459c-12.495-12.497-32.757-12.497-45.254 0s-12.497 32.755 0 45.252l204.46 204.46c12.497 12.497 32.755 12.497 45.252 0zM386.968 573.323c12.497 12.497 32.758 12.497 45.254 0l204.8-204.798c12.497-12.497 12.497-32.759 0-45.257s-32.755-12.497-45.252 0l-204.801 204.8c-12.497 12.496-12.497 32.758 0 45.254zM181.047 778.949c71.159 71.159 181.189 95.714 330.953 95.714s259.793-24.556 330.953-95.714c71.159-71.158 95.714-181.188 95.714-330.953s-24.555-259.793-95.714-330.953c-71.159-71.159-181.188-95.714-330.953-95.714s-259.794 24.555-330.953 95.714c-71.158 71.159-95.714 181.188-95.714 330.953s24.556 259.795 95.714 330.953zM226.302 733.694c-52.18-52.18-76.969-139.483-76.969-285.698s24.788-233.519 76.969-285.696c52.18-52.181 139.483-76.971 285.698-76.971s233.519 24.789 285.696 76.971c52.181 52.177 76.971 139.482 76.971 285.696s-24.789 233.518-76.971 285.698c-52.177 52.18-139.482 76.969-285.696 76.969s-233.518-24.788-285.698-76.969z" />
<glyph unicode="&#xe91c;" glyph-name="danger-square" d="M226.293 733.694c-52.18-52.18-76.969-139.483-76.969-285.698s24.788-233.519 76.969-285.696c52.18-52.181 139.484-76.971 285.698-76.971s233.519 24.789 285.696 76.971c52.181 52.177 76.971 139.482 76.971 285.696s-24.789 233.518-76.971 285.698c-52.177 52.18-139.482 76.969-285.696 76.969s-233.518-24.788-285.698-76.969zM181.039 778.949c71.159 71.159 181.189 95.714 330.953 95.714s259.793-24.556 330.953-95.714c71.159-71.158 95.714-181.188 95.714-330.953s-24.555-259.793-95.714-330.953c-71.159-71.159-181.188-95.714-330.953-95.714s-259.794 24.555-330.953 95.714c-71.158 71.159-95.714 181.188-95.714 330.953s24.556 259.795 95.714 330.953zM511.991 646.188c17.673 0 32-14.327 32-32v-166.188c0-17.673-14.327-32-32-32s-32 14.327-32 32v166.188c0 17.673 14.327 32 32 32zM479.808 298.667c0 17.673 14.327 32 32 32h0.384c17.673 0 32-14.327 32-32s-14.327-32-32-32h-0.384c-17.673 0-32 14.327-32 32z" />
<glyph unicode="&#xe91d;" glyph-name="danger-triangle" d="M512 864c-51.861 0-99.386-30.647-146.417-83.084s-96.374-128.828-155-233.083c-16.898-30.056-54.633-93.642-85.917-162.749s-59.119-142.596-47.667-207.334c5.359-30.289 19.097-57.839 41.25-78.498s51.136-34.283 86.333-43.836c70.395-19.102 168.111-23.415 307.417-23.415 139.307 0 237.018 4.314 307.418 23.415 35.2 9.553 64.265 23.172 86.417 43.836 22.153 20.659 35.819 48.205 41.165 78.498 11.452 64.738-16.38 138.227-47.667 207.334-31.283 69.107-69.018 132.693-85.914 162.749-58.628 104.256-107.972 180.647-155.004 233.083-47.027 52.436-94.554 83.084-146.415 83.084zM512 800c26.487 0 57.643-16.003 98.752-61.833 41.105-45.831 89.31-119.311 146.914-221.751 17.86-31.765 53.943-92.826 83.332-157.751 29.393-64.922 49.178-134.844 43.004-169.749-3.447-19.524-9.984-31.778-21.837-42.833-11.849-11.051-30.665-21.090-59.499-28.915-57.668-15.65-152.875-21.167-290.667-21.167-137.79 0-233.004 5.517-290.667 21.167-28.831 7.825-47.645 17.86-59.5 28.915s-18.378 23.305-21.833 42.833c-6.175 34.906 13.609 104.828 43 169.749 29.391 64.926 65.475 125.986 83.334 157.751 57.604 102.439 105.811 175.92 146.917 221.751s72.262 61.833 98.75 61.833zM512 629.333c-8.486 0-16.627-3.372-22.626-9.373-6.003-6.001-9.374-14.141-9.374-22.627v-166.165c0-8.486 3.371-16.627 9.374-22.63 5.999-5.999 14.14-9.37 22.626-9.37s16.627 3.371 22.626 9.37c6.003 6.003 9.374 14.144 9.374 22.63v166.165c0 8.487-3.371 16.626-9.374 22.627-5.999 6.001-14.14 9.373-22.626 9.373zM511.834 313.835c-8.486 0-16.627-3.371-22.626-9.374-6.003-6.003-9.374-14.14-9.374-22.626s3.371-16.627 9.374-22.63c5.999-5.999 14.14-9.37 22.626-9.37h0.333c8.486 0 16.627 3.371 22.626 9.37 6.003 6.003 9.374 14.144 9.374 22.63s-3.371 16.623-9.374 22.626c-5.999 6.003-14.14 9.374-22.626 9.374h-0.333z" />
<glyph unicode="&#xe91e;" glyph-name="delete" d="M242.917 584.333c-8.487 0-16.626-3.372-22.627-9.373s-9.373-14.141-9.373-22.627c0-169.507-15.159-293.492 18.083-387.333 16.621-46.921 48.834-85.73 97.583-108.834s112.021-32.585 197.333-32.585c85.303 0 148.681 9.498 197.5 32.585s81.071 61.833 97.835 108.749c33.523 93.837 18.667 217.882 18.667 387.418 0 8.487-3.371 16.626-9.374 22.627-5.999 6.001-14.14 9.373-22.626 9.373s-16.627-3.372-22.63-9.373c-5.999-6.001-9.37-14.141-9.37-22.627 0-172.608 9.745-296.888-14.916-365.918-12.335-34.513-29.807-55.812-64.917-72.414-35.11-16.606-89.843-26.419-170.167-26.419-80.333 0-134.997 9.83-170 26.419s-52.358 37.82-64.583 72.333c-24.45 69.022-14.417 193.361-14.417 365.999 0 8.487-3.372 16.626-9.373 22.627s-14.141 9.373-22.627 9.373v0zM179.833 715.5c-8.487 0-16.626-3.372-22.627-9.373s-9.373-14.141-9.373-22.627c0-8.487 3.372-16.626 9.373-22.627s14.141-9.373 22.627-9.373h689.082c8.486 0 16.627 3.372 22.63 9.373 5.999 6.001 9.37 14.141 9.37 22.627s-3.371 16.626-9.37 22.627c-6.003 6.001-14.144 9.373-22.63 9.373h-689.082zM524.335 876.167c-94.498 0-147.22-51.561-166.168-100.833s-11.667-96.25-11.667-96.25c0.583-4.165 1.981-8.175 4.115-11.799s4.96-6.793 8.32-9.323c3.359-2.531 7.184-4.375 11.256-5.426s8.312-1.29 12.476-0.702c4.165 0.583 8.175 1.981 11.799 4.115s6.793 4.96 9.324 8.32c2.531 3.359 4.375 7.184 5.426 11.256s1.29 8.312 0.701 12.476c0 0-3.945 33.355 8 64.417s32.238 59.75 106.418 59.75c74.197 0 94.549-28.772 106.5-59.834 11.947-31.061 8-64.333 8-64.333-0.589-4.164-0.35-8.404 0.7-12.476s2.897-7.897 5.427-11.256c2.53-3.359 5.7-6.186 9.323-8.32s7.633-3.532 11.797-4.115c8.397-1.164 16.913 1.052 23.68 6.161s11.226 12.694 12.403 21.089c0 0 7.373 46.976-11.584 96.25-18.953 49.274-71.731 100.833-166.246 100.833z" />
<glyph unicode="&#xe91f;" glyph-name="discount" d="M226.31 733.694c-52.18-52.18-76.969-139.483-76.969-285.698s24.788-233.519 76.969-285.696c52.18-52.181 139.484-76.971 285.698-76.971s233.519 24.789 285.696 76.971c52.181 52.177 76.971 139.482 76.971 285.696s-24.789 233.518-76.971 285.698c-52.177 52.18-139.482 76.969-285.696 76.969s-233.518-24.788-285.698-76.969zM181.056 778.949c71.159 71.159 181.189 95.714 330.953 95.714s259.793-24.556 330.953-95.714c71.159-71.158 95.714-181.188 95.714-330.953s-24.555-259.793-95.714-330.953c-71.159-71.159-181.188-95.714-330.953-95.714s-259.794 24.555-330.953 95.714c-71.158 71.159-95.714 181.188-95.714 330.953s24.556 259.795 95.714 330.953zM644.275 580.285c12.497-12.497 12.497-32.758 0-45.255l-219.305-219.305c-12.497-12.497-32.758-12.497-45.255 0s-12.497 32.755 0 45.252l219.308 219.308c12.497 12.497 32.755 12.497 45.252 0zM575.808 341.333c0 23.565 19.102 42.667 42.667 42.667h0.384c23.565 0 42.667-19.102 42.667-42.667s-19.102-42.667-42.667-42.667h-0.384c-23.565 0-42.667 19.102-42.667 42.667zM362.475 554.667c0 23.564 19.102 42.667 42.667 42.667h0.384c23.565 0 42.667-19.103 42.667-42.667s-19.102-42.667-42.667-42.667h-0.384c-23.564 0-42.667 19.102-42.667 42.667z" />
<glyph unicode="&#xe920;" glyph-name="discovery" d="M181.047 778.948c71.159 71.159 181.189 95.714 330.953 95.714s259.793-24.555 330.953-95.714c71.159-71.159 95.714-181.189 95.714-330.953s-24.555-259.793-95.714-330.953c-71.159-71.159-181.188-95.714-330.953-95.714s-259.794 24.555-330.953 95.714c-71.158 71.159-95.714 181.188-95.714 330.953s24.556 259.794 95.714 330.953zM226.302 733.693c-52.18-52.18-76.969-139.484-76.969-285.698s24.788-233.519 76.969-285.7c52.18-52.177 139.483-76.966 285.698-76.966s233.519 24.789 285.696 76.966c52.181 52.181 76.971 139.486 76.971 285.7s-24.789 233.518-76.971 285.698c-52.177 52.18-139.482 76.969-285.696 76.969s-233.518-24.788-285.698-76.969zM675.503 611.499c8.422-8.421 11.469-20.82 7.915-32.185l-67.157-214.569c-3.132-10.010-10.97-17.847-20.979-20.979l-214.612-67.2c-11.365-3.558-23.766-0.512-32.188 7.906-8.422 8.422-11.471 20.821-7.914 32.188l67.157 214.613c3.133 10.010 10.973 17.85 20.982 20.982l214.613 67.157c11.366 3.556 23.765 0.508 32.183-7.913zM463.804 496.175l-43.892-140.258 140.268 43.921 43.891 140.232-140.267-43.895z" />
<glyph unicode="&#xe921;" glyph-name="document" d="M325.367 290.287c0 17.673 14.327 32 32 32h308.054c17.673 0 32-14.327 32-32s-14.327-32-32-32h-308.054c-17.673 0-32 14.327-32 32zM325.367 450.705c0 17.673 14.327 32 32 32h308.054c17.673 0 32-14.327 32-32s-14.327-32-32-32h-308.054c-17.673 0-32 14.327-32 32zM325.376 611.103c0 17.673 14.327 32 32 32h117.546c17.673 0 32-14.327 32-32s-14.327-32-32-32h-117.546c-17.673 0-32 14.327-32 32zM208.646 777.821c65.362 72.055 166.755 96.841 303.397 96.841 136.661 0 238.054-24.785 303.415-96.843 64.503-71.114 86.601-180.564 86.601-329.824s-22.097-258.709-86.601-329.822c-65.361-72.060-166.754-96.845-303.415-96.845-136.642 0-238.035 24.785-303.397 96.841-64.509 71.117-86.619 180.565-86.619 329.826 0 149.263 22.11 258.712 86.619 329.826zM256.048 734.822c-47.375-52.225-70.022-140.109-70.022-286.826s22.647-234.598 70.022-286.827c46.52-51.281 124.135-75.84 255.994-75.84 131.883 0 209.498 24.559 256.009 75.84 47.369 52.224 70.007 140.109 70.007 286.827 0 146.72-22.639 234.603-70.007 286.827-46.511 51.281-124.126 75.84-256.009 75.84-131.86 0-209.475-24.558-255.994-75.841z" />
<glyph unicode="&#xe922;" glyph-name="download" d="M506.842 874.667c17.673 0 32-14.327 32-32v-513.749c0-17.673-14.327-32-32-32s-32 14.327-32 32v513.749c0 17.673 14.327 32 32 32zM359.845 476.467c12.523 12.471 32.784 12.429 45.255-0.094l101.742-102.161 101.743 102.161c12.471 12.523 32.734 12.565 45.252 0.094 12.523-12.471 12.565-32.73 0.094-45.252l-124.416-124.928c-6.003-6.033-14.161-9.421-22.673-9.421-8.508 0-16.67 3.388-22.673 9.421l-124.416 124.928c-12.471 12.523-12.43 32.781 0.093 45.252zM666.603 653.234c1.621 17.598 17.203 30.549 34.803 28.927 78.814-7.267 142.771-26.327 184.141-82.145 39.663-53.516 53.133-134.147 53.133-248.387 0-151.441-23.757-244.553-101.564-292.335-37.082-22.771-83.004-32.836-135.569-37.726-52.361-4.873-115.264-4.873-188.186-4.873h-2.697c-72.943 0-135.856 0-188.22 4.873-52.571 4.89-98.492 14.955-135.569 37.726-77.795 47.787-101.529 140.898-101.529 292.335 0 114.236 13.459 194.868 53.116 248.386 41.363 55.82 105.324 74.88 184.16 82.147 17.599 1.622 33.18-11.329 34.802-28.928s-11.329-33.18-28.928-34.802c-73.911-6.813-114.057-23.38-138.613-56.52-26.263-35.443-40.537-97.105-40.537-210.282 0-151.497 25.524-209.852 71.025-237.798 24.571-15.091 58.807-23.962 108-28.54 49.077-4.565 109.085-4.595 183.64-4.595 74.539 0 134.532 0.030 183.603 4.595 49.19 4.578 83.43 13.449 108.006 28.54 45.513 27.951 71.057 86.31 71.057 237.798 0 113.173-14.285 174.835-40.55 210.28-24.563 33.143-64.713 49.71-138.603 56.522-17.596 1.623-30.549 17.204-28.924 34.803z" />
<glyph unicode="&#xe923;" glyph-name="edit-square" d="M512 874.667c-151.546 0-260.198-25.031-330.917-95.75s-95.75-179.371-95.75-330.917c0-151.548 25.031-260.198 95.75-330.918 70.719-70.716 179.371-95.748 330.917-95.748 151.548 0 260.279 25.033 330.999 95.748 70.72 70.72 95.667 179.371 95.667 330.918 0 8.486-3.371 16.627-9.374 22.626-5.999 6.003-14.14 9.374-22.626 9.374s-16.627-3.371-22.626-9.374c-6.003-5.999-9.374-14.14-9.374-22.626 0-144.431-24.38-233.045-77.001-285.666s-141.235-77.001-285.666-77.001c-144.433 0-233.047 24.38-285.667 77.001s-77 141.235-77 285.666c0 144.433 24.381 233.047 77 285.667s141.234 77 285.667 77c8.486 0 16.627 3.372 22.626 9.373 6.003 6.001 9.374 14.141 9.374 22.627s-3.371 16.626-9.374 22.627c-5.999 6.001-14.14 9.373-22.626 9.373v0zM757.167 833.667c-34.406-2.090-68.019-17.175-92.501-44.833 0 0-186.423-210.555-251.082-283.668-79.575-89.801-22.25-208.832-22.25-208.832 1.888-3.985 4.581-7.539 7.908-10.436s7.217-5.073 11.426-6.396c0 0 125.363-41.536 204.169 47.501 63.821 72.060 251.166 283.582 251.166 283.582 48.969 55.318 43.674 140.785-11.584 189.75-27.657 24.48-62.844 35.424-97.25 33.333zM760.998 770.167c17.924 1.088 36.288-4.726 50.999-17.75 29.393-26.042 32.124-69.999 6.084-99.417 0 0-187.383-211.567-251.166-283.584-41.216-46.566-101.201-35.482-121.583-30.835-7.305 19.452-25.994 76.591 16.166 124.169 64.619 73.065 251.085 283.584 251.085 283.584 13.022 14.71 30.494 22.745 48.414 23.833zM641.835 744.5c-4.77 0.218-9.532-0.634-13.926-2.494-4.399-1.86-8.324-4.681-11.49-8.256-2.799-3.148-4.949-6.818-6.323-10.799-1.378-3.98-1.954-8.193-1.698-12.397s1.34-8.316 3.187-12.101c1.847-3.785 4.425-7.167 7.582-9.954l153.417-135.75c6.357-5.624 14.682-8.494 23.155-7.978 8.469 0.516 16.388 4.375 22.012 10.728s8.495 14.682 7.979 23.153c-0.516 8.47-4.373 16.389-10.726 22.014l-153.417 135.75c-5.466 4.875-12.437 7.728-19.75 8.083z" />
<glyph unicode="&#xe924;" glyph-name="edit" d="M536.969 127.667c0 17.673 14.327 32 32 32h272.085c17.673 0 32-14.327 32-32s-14.327-32-32-32h-272.085c-17.673 0-32 14.327-32 32zM477.867 745.997c53.615 71.436 154.991 85.896 226.466 32.29 71.445-53.625 85.858-155.059 32.247-226.484l-51.183 38.418c32.405 43.178 23.68 104.482-19.473 136.873-43.213 32.401-104.478 23.649-136.875-19.514l-288.079-383.782c-29.736-39.637-31.299-84.634-24.003-122.56 3.626-18.846 9.324-35.127 14.134-46.694 0.599-1.442 1.183-2.803 1.743-4.083 1.436-0.175 2.965-0.35 4.58-0.516 12.579-1.301 29.961-2.121 49.205-0.26 38.825 3.755 81.533 17.894 110.675 56.742 36.585 48.725 108.615 144.683 171.489 228.446l116.604 155.35 51.183-38.418-116.599-155.349c-62.878-83.767-134.899-179.716-171.49-228.442-43.985-58.633-107.043-77.325-155.702-82.031-24.501-2.368-46.291-1.318-61.95 0.299-7.866 0.815-14.285 1.783-18.845 2.573-2.282 0.397-4.107 0.747-5.423 1.015l-1.588 0.333-0.498 0.107-0.173 0.038-0.067 0.017c-0.013 0.004-0.054 0.013 7.117 31.198-27.767-15.906-27.774-15.893-27.781-15.881l-0.049 0.085-0.339 0.606-0.78 1.425c-0.637 1.186-1.5 2.829-2.536 4.898-2.069 4.13-4.839 9.984-7.869 17.271-6.031 14.498-13.243 35.034-17.889 59.183-9.248 48.068-8.806 113.792 35.656 173.056l288.091 383.791zM211.362 121.562l-27.781-15.881c4.435-7.744 11.914-13.308 20.61-15.305l7.171 31.185zM422.583 671.523c10.608 14.134 30.67 16.992 44.801 6.382l207.531-155.776c14.135-10.607 16.994-30.669 6.383-44.8-10.607-14.135-30.669-16.994-44.8-6.383l-207.531 155.775c-14.136 10.609-16.993 30.668-6.384 44.803z" />
<glyph unicode="&#xe925;" glyph-name="filter-2" d="M175.507 756.765c-9.137-11.166-15.507-28.132-15.507-57.067 0-29.268 13.639-58.385 39.322-89.766 25.798-31.522 60.772-61.818 98.393-93.806 1.955-1.664 3.919-3.332 5.889-5.005 34.867-29.623 71.724-60.932 100.033-93.726 29.877-34.611 54.333-75.422 54.333-122.974 0-74.385 0.371-126.733 9.775-161.067 4.463-16.303 10.069-24.751 15.467-29.338 4.898-4.164 12.992-8.017 28.945-8.017 15.94 0 23.996 3.849 28.86 7.996 5.363 4.57 10.948 13.001 15.39 29.312 9.353 34.355 9.664 86.703 9.664 161.114 0 47.552 24.457 88.363 54.327 122.97 28.305 32.798 65.156 64.107 100.019 93.726 1.971 1.677 3.934 3.345 5.888 5.005 37.615 31.991 72.585 62.286 98.377 93.808 25.681 31.382 39.317 60.498 39.317 89.769 0 28.935-6.37 45.901-15.509 57.067-9.365 11.449-25.267 21.245-53.163 28.471-28.032 7.261-64.981 11.116-112.823 13.004-44.937 1.773-97.634 1.768-159.3 1.761-3.708 0-7.454 0-11.226 0-3.776 0-7.518 0-11.226 0-61.653 0.006-114.347 0.012-159.276-1.761-47.836-1.888-84.78-5.743-112.812-13.003-27.893-7.225-43.791-17.022-53.159-28.471zM500.194 864c3.9 0 7.825-0.001 11.785-0.001 3.955 0 7.885 0 11.785 0.001 61.090 0.007 115.008 0.014 161.263-1.811 49.003-1.934 91.499-5.972 126.349-14.998 34.991-9.062 65.412-23.947 86.647-49.896 21.466-26.231 29.978-59.38 29.978-97.597 0-50.225-23.603-93.414-53.786-130.298-30.067-36.745-69.581-70.677-106.445-102.029-1.459-1.242-2.91-2.475-4.356-3.708-36.245-30.81-69.602-59.166-94.562-88.085-25.993-30.114-38.78-56.294-38.78-81.156v-4.075c0.009-68.762 0.013-130.061-11.913-173.85-6.315-23.194-16.849-45.214-35.635-61.218-19.285-16.431-43.413-23.279-70.366-23.279-26.957 0-51.093 6.848-70.396 23.258-18.812 15.987-29.39 37.995-35.744 61.193-12.052 44.002-12.049 105.66-12.047 174.818v3.153c0 24.858-12.787 51.038-38.781 81.152-24.964 28.919-58.327 57.28-94.577 88.090-1.448 1.233-2.9 2.466-4.357 3.703-36.872 31.356-76.391 65.289-106.463 102.031-30.187 36.885-53.794 80.073-53.794 130.301 0 38.217 8.512 71.366 29.976 97.597 21.233 25.949 51.657 40.834 86.642 49.896 34.847 9.027 77.339 13.065 126.336 14.999 46.248 1.825 100.159 1.818 161.24 1.811z" />
<glyph unicode="&#xe926;" glyph-name="filter" d="M167.302 197.001c0 17.673 14.327 32 32 32h276.163c17.673 0 32-14.327 32-32s-14.327-32-32-32h-276.163c-17.673 0-32 14.327-32 32zM651.533 310.323c27.635 27.631 68.032 34.769 113.344 34.769 45.308 0 85.705-7.138 113.34-34.765 27.644-27.635 34.786-68.032 34.786-113.365s-7.142-85.73-34.786-113.365c-27.635-27.631-68.032-34.765-113.34-34.765-45.312 0-85.709 7.134-113.344 34.765-27.639 27.635-34.786 68.032-34.786 113.365s7.147 85.73 34.786 113.361zM696.781 265.067c-8.657-8.657-16.034-26.321-16.034-68.105s7.377-59.452 16.034-68.105c8.657-8.653 26.325-16.026 68.096-16.026 41.766 0 59.435 7.373 68.092 16.026s16.034 26.321 16.034 68.105c0 41.783-7.377 59.447-16.034 68.105-8.657 8.653-26.325 16.026-68.092 16.026-41.771 0-59.439-7.373-68.096-16.026zM572.868 644.514c0 17.673 14.323 32 32 32h276.122c17.673 0 32-14.327 32-32s-14.327-32-32-32h-276.122c-17.677 0-32 14.327-32 32zM202.077 757.922c27.641 27.633 68.043 34.78 113.377 34.78 45.318 0 85.711-7.148 113.345-34.783 27.635-27.635 34.786-68.028 34.786-113.347 0-45.333-7.147-85.731-34.786-113.364-27.639-27.631-68.036-34.765-113.345-34.765-45.326 0-85.731 7.134-113.374 34.761-27.648 27.634-34.794 68.035-34.794 113.368 0 45.318 7.148 85.714 34.791 113.35zM247.327 712.661c-8.662-8.66-16.040-26.329-16.040-68.089 0-41.783 7.38-59.447 16.037-68.1 8.661-8.657 26.34-16.029 68.131-16.029 41.769 0 59.437 7.372 68.095 16.026 8.655 8.653 16.035 26.32 16.035 68.103 0 41.76-7.378 59.432-16.038 68.092s-26.332 16.038-68.092 16.038c-41.782 0-59.464-7.379-68.128-16.041z" />
<glyph unicode="&#xe927;" glyph-name="folder" d="M279.71 338.167c0 17.673 14.327 32 32 32h409.301c17.673 0 32-14.327 32-32 0-17.677-14.327-32-32-32h-409.301c-17.673 0-32 14.323-32 32zM487.932 792.692c-55.117 29.735-123.685 37.53-220.28 17.664l-0.015-0.003c-82.014-16.827-128.97-89.213-128.97-183.084v-258.805c0-140.659 38.587-205.107 96.257-238.66 30.65-17.83 69.483-28.681 117.344-34.859 47.851-6.174 102.656-7.45 164.425-7.45 125.372 0 218.825 6.464 281.664 43.345 57.852 33.95 96.363 98.564 96.363 237.623v0.265c0 38.447 0 84.544-8.329 130.394-8.324 45.835-24.538 88.692-55.036 121.591v0.001c-24.798 26.755-56.226 31.574-97.95 31.52-5.969-0.008-12.493-0.13-19.294-0.258-14.972-0.281-31.283-0.588-45.961 0.251-22.379 1.279-46.972 5.276-69.572 18.133zM518.31 849.022c-72.623 39.176-157.817 45.766-263.537 24.026zM518.319 849.018c40.397-21.783 55.612-50.185 67.661-72.688l0.333-0.621c11.063-20.65 19.354-35.751 43.908-49.715l0.004-0.003c10.249-5.832 23.509-8.834 41.579-9.867 12.322-0.704 24.286-0.468 37.705-0.202 7.394 0.146 15.232 0.302 23.817 0.313 44.804 0.058 100.736-4.286 144.973-52.015 41.783-45.079 61.513-101.066 71.066-153.658 9.365-51.563 9.361-102.481 9.357-140.109v-1.988c0-150.912-42.705-242.782-127.97-292.821-80.273-47.113-191.834-52.147-314.057-52.147-62.029 0-120.375 1.233-172.616 7.974-52.23 6.741-100.43 19.217-141.337 43.017-85.444 49.707-128.073 141.743-128.073 293.978v258.805c0 114.501 59.706 221.067 180.093 245.775zM529.899 745.488c-11.136 20.787-18.82 34.726-41.958 47.2l-0.009 0.004zM529.899 745.488l0.188-0.352zM530.086 745.136c12.151-22.684 27.593-51.513 68.489-74.772z" />
<glyph unicode="&#xe928;" glyph-name="game" d="M394.869 477.338c17.673 0 31.998-14.327 31.998-32v-152.542c0-17.677-14.325-32-31.998-32s-32 14.323-32 32v152.542c0 17.673 14.327 32 32 32zM285.079 369.079c0 17.673 14.327 32 32 32h155.638c17.673 0 32-14.327 32-32s-14.327-32-32-32h-155.638c-17.673 0-32 14.327-32 32zM624.009 440.7c0 17.673 14.323 32 32 32h4.356c17.673 0 32-14.327 32-32s-14.327-32-32-32h-4.356c-17.677 0-32 14.327-32 32zM697.856 295.113c0 17.677 14.323 32 32 32h4.356c17.673 0 32-14.323 32-32 0-17.673-14.327-32-32-32h-4.356c-17.677 0-32 14.327-32 32zM362.965 897.445c17.673 0.166 32.133-14.027 32.298-31.699 0.119-12.745 10.577-23.043 23.424-22.923l0.3 0.003v-0.001h42.897c64.606 0.431 117.406-51.383 118.302-115.954l0.004-0.443v-42.972c0-17.673-14.327-32-32-32s-32 14.327-32 32v42.726c-0.512 29.384-24.585 52.873-53.939 52.645l-0.252-0.002v0.001h-42.878c-48.015-0.361-87.404 38.187-87.855 86.322-0.165 17.672 14.027 32.133 31.699 32.298zM185.372 639.53c72.817 56.544 184.456 75.93 337.917 75.93 153.442 0 265.071-19.386 337.882-75.93 75.324-58.496 101.478-150.139 101.478-272.396 0-122.274-26.15-213.922-101.478-272.414-72.815-56.538-184.444-75.913-337.882-75.913-153.459 0-265.098 19.375-337.916 75.913-75.334 58.492-101.487 150.14-101.487 272.414 0 122.257 26.154 213.901 101.486 272.396zM224.624 588.981c-51.977-40.361-76.738-106.882-76.738-221.847 0-114.991 24.762-181.504 76.737-221.862 54.49-42.308 146.552-62.464 298.666-62.464 152.094 0 244.143 20.156 298.628 62.464 51.972 40.354 76.732 106.871 76.732 221.862 0 114.965-24.759 181.487-76.732 221.848-54.485 42.313-146.539 62.478-298.628 62.478-152.111 0-244.174-20.166-298.665-62.479z" />
<glyph unicode="&#xe929;" glyph-name="graph" d="M622.532 872.417c-23.842-3.977-46.007-14.675-63.083-34.333-17.749-20.434-20.868-41.899-26.082-69.917s-8.503-60.925-9.749-94c-1.25-33.075-0.503-66.092 3.166-94.667s5.939-52.413 27.081-73.584c21.073-21.043 45.099-23.147 73.417-26.082 28.322-2.935 61.065-2.641 94.336 0s66.884 7.663 96.499 14.916c29.615 7.253 54.758 15.236 74.999 31.168 0 0.026 0 0.055 0 0.081 20.855 16.426 34.155 39.419 38.251 63.251s0.068 47.697-8.252 70.5c-16.64 45.606-50.62 88.928-91.332 125.75s-88.196 66.891-136 81.083c-23.902 7.096-49.404 9.81-73.25 5.833zM634.948 810.583c11.375 1.53 25.365-0.197 42.667-5.333 34.603-10.273 76.361-35.693 111.253-67.25 34.889-31.557 62.908-69.542 74.082-100.167 5.585-15.312 6.963-28.265 5.333-37.75s-5.201-16.248-14.835-23.834c-5.133-4.023-25.318-13.145-50.581-19.333-25.301-6.197-56.132-10.935-86.336-13.333-30.199-2.398-59.968-2.437-82.667-0.084-22.694 2.353-38.259 11.175-34.748 7.667 3.588-3.592-5.828 13.1-8.832 36.5-3.008 23.4-3.895 53.75-2.752 84.083 1.148 30.333 4.309 60.806 8.751 84.667s14.148 42.798 11.499 39.75c7.031 8.096 15.795 12.886 27.166 14.417zM387.7 743c-17.815 2.65-36.846 0.749-55-4.167-36.308-9.832-73.57-31.506-108.5-62.417-69.859-61.82-130.333-162.577-130.333-286.166 0-198.758 161.788-360.585 360.585-360.585 133.086 0 233.702 72.375 293.581 150.084 29.943 38.852 50.24 79.095 60.416 115.251 5.090 18.074 7.77 35.153 6.921 51.665-0.853 16.512-5.18 33.929-18.837 47.582-21.764 21.769-49.69 25.442-77.666 27.251-27.972 1.813-58.27 0.183-88.247-0.666-59.959-1.698-114.931 3.917-133.666 22.665-20.774 20.787-29.901 73.058-32.333 127.918-1.22 27.43-1.442 54.811-4.002 79.583s-4.881 48.548-25.084 68.75c-13.415 13.416-30.019 20.599-47.833 23.25zM349.45 677.083c23.512 6.367 35.686 2.564 40.833-2.583-1.792 1.792 4.585-9.946 6.667-30.083s2.476-47.082 3.75-75.833c2.549-57.505 5.725-125.029 50.999-170.333 47.309-47.343 119.006-43.166 180.749-41.417 30.874 0.875 60.126 2.189 82.334 0.751 22.212-1.438 35.145-7.228 36.501-8.585-2.095 2.091-0.179 1.178 0.166-5.585 0.35-6.758-0.883-17.933-4.582-31.083-7.403-26.295-24.273-60.651-49.583-93.5-50.628-65.694-132.894-125.167-242.833-125.167-164.214 0-296.585 132.416-296.585 296.585 0 102.541 51.068 187.205 108.75 238.249 28.841 25.522 59.322 42.217 82.833 48.583z" />
<glyph unicode="&#xe92a;" glyph-name="heart" d="M735.629 767.432c-69.047 22.149-152.499 4.811-194.739-59.257-5.786-8.771-15.505-14.145-26.005-14.378-10.505-0.233-20.454 4.704-26.62 13.209-46.029 63.486-128.172 82.307-195.945 60.436l-0.023-0.007c-127.51-41.041-179.59-196.202-137.158-328.702 34.121-106.189 108.75-187.221 184.604-242.086 37.803-27.345 75.311-47.735 107.093-61.188 32.836-13.897 56.482-19.076 67.337-19.076 10.769 0 34.496 5.282 67.575 19.409 31.979 13.658 69.717 34.304 107.674 61.824 76.211 55.262 150.677 136.26 183.599 240.943l0.051 0.154c42.381 132.445-9.929 287.659-137.442 328.721zM513.28 775.394c65.22 66.296 164.403 77.846 241.924 52.972l0.026-0.009c172.484-55.532 227.87-255.669 178.82-409.075-38.345-121.839-123.797-213.103-207.061-273.476-41.796-30.306-83.699-53.321-120.107-68.873-35.315-15.083-68.727-24.55-92.71-24.55-23.876 0-57.079 9.242-92.28 24.137-36.255 15.347-77.974 38.118-119.658 68.271-83.119 60.117-168.509 151.369-208.032 274.381l-0.009 0.026c-49.122 153.363 5.891 353.6 178.486 409.159zM513.28 775.394c-66.091 63.508-161.941 78.335-240.593 52.963zM641.813 640.538c1.809 17.581 17.523 30.368 35.102 28.562 33.813-3.474 62.827-18.973 82.761-44.181 19.729-24.947 28.915-57.245 27.746-92.064-0.593-17.664-15.394-31.501-33.058-30.908-17.66 0.593-31.501 15.39-30.908 33.055 0.751 22.399-5.21 39.124-13.982 50.22-8.567 10.834-21.41 18.397-39.095 20.213-17.583 1.806-30.37 17.522-28.565 35.103z" />
<glyph unicode="&#xe92b;" glyph-name="hide" d="M253.566 625.811c-67.12-56.744-104.233-126.449-104.233-183.776 0-67.759 52.282-152.922 142.115-211.733 14.786-9.681 18.925-29.517 9.244-44.301-9.681-14.788-29.515-18.927-44.301-9.246-100.461 65.775-171.058 168.346-171.058 265.28 0 82.62 51.207 168.648 126.914 232.651 76.543 64.71 182.369 110.816 299.753 110.816 96.021 0 184.9-30.763 256.256-78.334 14.707-9.804 18.679-29.671 8.875-44.376-9.801-14.705-29.67-18.678-44.373-8.875-61.764 41.175-138.432 67.586-220.757 67.586-100.643 0-192.15-39.654-258.434-95.691zM827.106 617.76c13.879 10.943 34.001 8.563 44.941-5.315 40.981-51.97 67.034-112.089 67.034-170.427 0-82.65-51.345-168.678-127.147-232.666-76.642-64.7-182.566-110.801-299.947-110.801-41.852 0-82.654 5.978-120.749 16.521-17.033 4.715-27.019 22.345-22.305 39.377s22.344 27.017 39.377 22.302c32.817-9.084 67.876-14.199 103.677-14.199 100.646 0 192.269 39.659 258.667 95.706 67.238 56.759 104.427 126.464 104.427 183.761 0 39.795-18.236 86.345-53.286 130.8-10.944 13.878-8.563 33.999 5.312 44.942zM584.721 515.102c-19.332 19.328-45.551 30.158-72.87 30.093h-0.021c-56.819-0.098-102.756-46.238-102.627-103.011v-0.188c-0.096-27.136 10.698-53.158 29.978-72.247 12.561-12.433 12.663-32.695 0.23-45.252-12.433-12.561-32.693-12.663-45.254-0.23-31.469 31.151-49.088 73.613-48.955 117.867-0.16 92.085 74.362 166.892 166.494 167.061zM511.718 609.195c44.352 0.099 86.903-17.486 118.255-48.84 12.497-12.497 12.497-32.756 0-45.254s-32.755-12.497-45.252 0zM650.377 449.66c17.387-3.149 28.932-19.802 25.783-37.193-12.361-68.237-65.741-121.715-133.961-134.229-17.382-3.187-34.061 8.32-37.248 25.702s8.32 34.061 25.702 37.248c42.031 7.71 74.923 40.674 82.53 82.688 3.149 17.387 19.802 28.932 37.193 25.783zM871.339 801.298c12.497-12.497 12.497-32.758 0-45.255l-673.022-673.023c-12.497-12.497-32.758-12.497-45.255 0s-12.497 32.755 0 45.252l673.025 673.025c12.497 12.497 32.755 12.497 45.252 0z" />
<glyph unicode="&#xe92c;" glyph-name="home" d="M355.357 271.556c0 17.673 14.327 32 32 32h248.107c17.673 0 32-14.327 32-32s-14.327-32-32-32h-248.107c-17.673 0-32 14.327-32 32zM290.554 704.954c-17.602-16.304-33.406-30.318-47.455-42.701-1.983-1.748-3.925-3.458-5.827-5.133-11.9-10.479-22.263-19.605-31.572-28.198-21.56-19.902-35.179-34.929-44.81-51.735-19.307-33.69-26.49-80.932-26.49-202.276 0-87.727 5.251-150.703 17.116-196.365 11.648-44.821 29.012-70.511 52.013-87.019 24.023-17.246 58.318-27.516 109.962-32.841 51.593-5.316 115.949-5.355 197.912-5.355s146.317 0.038 197.909 5.355c51.648 5.325 85.939 15.595 109.965 32.841 23.002 16.508 40.363 42.197 52.011 87.019 11.866 45.662 17.118 108.638 17.118 196.365 0 121.348-7.172 168.591-26.47 202.281-9.626 16.805-23.241 31.831-44.796 51.732-9.314 8.6-19.686 17.735-31.599 28.227-1.894 1.665-3.823 3.365-5.794 5.102-14.046 12.383-29.85 26.397-47.454 42.701-10.419 8.414-21.214 17.519-32.401 26.954-24.367 20.554-50.603 42.681-78.903 62.674-42.022 29.686-80.081 48.083-110.78 48.083-30.596 0-68.139-18.398-109.606-48.129-27.063-19.403-51.819-40.489-75.081-60.303-12.018-10.236-23.636-20.133-34.968-29.281zM363.312 846.551c42.68 30.6 94.591 60.116 146.896 60.116 52.16 0 104.491-29.283 147.708-59.81 30.545-21.58 60.766-47.048 86.063-68.367 10.79-9.094 20.685-17.433 29.329-24.393 0.58-0.467 1.143-0.954 1.69-1.46 17.323-16.066 32.913-29.893 47.070-42.372 1.92-1.692 3.819-3.365 5.696-5.020 11.857-10.441 22.874-20.142 32.789-29.297 23.010-21.243 42.377-41.561 56.917-66.943 29.030-50.683 34.935-115.185 34.935-234.092 0-89.062-5.197-158.677-19.174-212.463-14.191-54.618-38.063-95.228-76.634-122.914-37.551-26.953-85.171-38.784-140.723-44.51-55.236-5.692-122.833-5.692-202.889-5.692h-3.17c-80.051 0-147.648 0-202.887 5.692-55.552 5.726-103.169 17.557-140.72 44.51-38.572 27.686-62.442 68.297-76.636 122.914-13.976 53.786-19.174 123.401-19.174 212.463 0 118.912 5.916 183.414 34.961 234.097 14.545 25.381 33.915 45.698 56.928 66.94 9.906 9.145 20.911 18.834 32.753 29.262 1.892 1.666 3.805 3.35 5.738 5.054 14.158 12.479 29.747 26.306 47.071 42.371 0.547 0.508 1.112 0.996 1.693 1.464 9.050 7.285 19.613 16.266 31.199 26.116 24.49 20.822 53.552 45.53 82.569 66.334z" />
<glyph unicode="&#xe92d;" glyph-name="image-2" d="M512 874.667c-151.546 0-260.198-25.031-330.917-95.75s-95.75-179.371-95.75-330.917c0-151.548 25.031-260.198 95.75-330.918 70.719-70.716 179.371-95.748 330.917-95.748 151.548 0 260.198 25.033 330.918 95.748 70.716 70.72 95.748 179.371 95.748 330.918s-25.033 260.198-95.748 330.917c-70.72 70.719-179.371 95.75-330.918 95.75zM512 810.667c144.431 0 233.045-24.381 285.666-77s77.001-141.234 77.001-285.667c0-144.431-24.38-233.045-77.001-285.666s-141.235-77.001-285.666-77.001c-144.433 0-233.047 24.38-285.667 77.001s-77 141.235-77 285.666c0 144.433 24.381 233.047 77 285.667s141.234 77 285.667 77zM377.083 692.333c-58.767 0-107.167-48.353-107.167-107.167s48.4-107.082 107.167-107.082c58.791 0 107.085 48.29 107.085 107.082s-48.294 107.167-107.085 107.167zM377.083 628.333c24.238 0 43.084-18.929 43.084-43.167s-18.846-43.083-43.084-43.083c-24.177 0-43.167 18.868-43.167 43.083s18.99 43.167 43.167 43.167zM712.666 482.999c-33.822 0-62.059-16.567-81.417-36.749s-32.589-43.755-45.167-65.25c-12.574-21.495-24.444-40.887-36.25-53.001s-20.885-17.25-36.582-17.25c-43.597 0-72.875 12.305-104.833 23.582-31.96 11.277-71.763 20.954-113.667 1.25-44.172-20.796-74.060-63.091-96.75-99.413-22.709-36.356-36.75-68.668-36.75-68.668-3.383-7.77-3.545-16.563-0.451-24.452 3.093-7.893 9.19-14.234 16.951-17.63 3.852-1.69 7.998-2.603 12.203-2.684 4.204-0.085 8.384 0.661 12.3 2.193s7.492 3.819 10.523 6.737c3.031 2.914 5.457 6.4 7.141 10.253 0 0 12.354 28.429 32.333 60.416s49.043 65.604 69.75 75.332c23.077 10.85 35.878 6.669 65.167-3.665s69.968-27.251 126.083-27.251c34.138 0 62.737 16.393 82.415 36.582 19.682 20.194 33.045 43.759 45.67 65.335 12.621 21.577 24.457 41.126 36.083 53.248 11.622 12.122 20.241 17.084 35.247 17.084 80.602 0 123.401-63.791 165.5-107.085 2.927-3.012 6.421-5.423 10.278-7.087 3.861-1.664 8.009-2.556 12.211-2.615 4.198-0.064 8.375 0.704 12.279 2.253 3.904 1.553 7.467 3.857 10.483 6.784 3.012 2.927 5.423 6.421 7.087 10.278 1.668 3.857 2.556 8.009 2.615 12.211 0.064 4.198-0.704 8.371-2.253 12.279-1.553 3.904-3.857 7.467-6.784 10.483-33.079 34.018-96.687 126.498-211.418 126.498z" />
<glyph unicode="&#xe92e;" glyph-name="image" d="M541.137 268.565c-15.415-14.443-37.769-31.637-64.951-31.637-39.241 0-67.308 20.873-86.36 35.038-0.277 0.205-0.552 0.41-0.825 0.614-21.76 16.171-32.166 23.014-44.911 23.014-10.534 0-23.612-7.945-37.153-23.748-6.106-7.121-11.048-14.404-14.481-19.972-1.696-2.752-2.972-5.001-3.788-6.494-0.407-0.742-0.696-1.293-0.864-1.613l-0.15-0.29c-7.858-15.821-27.033-22.246-42.86-14.396-15.832 7.855-22.301 27.055-14.447 42.889l28.667-14.221c-28.667 14.221-28.671 14.212-28.667 14.221l0.039 0.077 0.052 0.102 0.143 0.286 0.444 0.862c0.365 0.704 0.87 1.655 1.508 2.825 1.275 2.33 3.101 5.534 5.44 9.331 4.638 7.526 11.509 17.707 20.369 28.045 16.389 19.119 45.85 46.097 85.748 46.097 35.502 0 62.136-19.955 79.908-33.271 1.094-0.819 2.154-1.617 3.181-2.381 20.403-15.164 32.926-23.014 49.007-23.014 0 0 1.69 0.043 5.615 2.24 4.096 2.295 9.254 6.174 15.578 12.096 12.275 11.503 25.148 27.004 39.979 44.855 0.772 0.934 1.553 1.873 2.342 2.82 15.010 18.061 32.073 38.413 49.903 54.127 17.165 15.121 40.508 30.976 68.429 30.976 24.674 0 45.845-9.967 62.481-22.059 16.602-12.070 30.391-27.46 41.118-41.655 10.837-14.34 19.324-28.493 25.071-38.959 2.893-5.269 5.146-9.702 6.703-12.877 0.777-1.587 1.387-2.871 1.813-3.793l0.512-1.109 0.158-0.341 0.068-0.158c0.004-0.009 0.017-0.034-29.21-13.065l29.21 13.065c7.198-16.141-0.038-35.093-16.179-42.291-16.128-7.189-35.029 0.043-42.24 16.154 0 0 0 0 0 0 0 0.004-0.017 0.038-0.017 0.043l-0.021 0.051-0.277 0.597c-0.269 0.572-0.7 1.481-1.289 2.684-1.178 2.402-2.974 5.943-5.329 10.236-4.757 8.661-11.593 20.011-20.032 31.177-8.546 11.311-17.984 21.423-27.695 28.48-9.677 7.036-17.903 9.822-24.845 9.822-3.738 0-11.972-2.534-26.116-14.997-13.474-11.87-27.439-28.297-42.995-47.014-1.062-1.276-2.133-2.564-3.209-3.866-13.909-16.759-29.239-35.234-44.574-49.6zM366.117 605.999c-18.985-0.010-34.413-15.434-34.413-34.475 0-19.047 15.439-34.475 34.432-34.475 19.049 0 34.475 15.441 34.475 34.475 0 18.994-15.39 34.443-34.494 34.475zM267.704 571.524c0 54.34 44.039 98.475 98.432 98.475h0.037c54.359-0.063 98.437-44.087 98.437-98.475 0-54.353-44.052-98.475-98.474-98.475-54.393 0-98.432 44.134-98.432 98.475zM181.060 778.949c71.159 71.158 181.189 95.714 330.953 95.714s259.793-24.556 330.953-95.714c71.159-71.159 95.714-181.189 95.714-330.953s-24.555-259.793-95.714-330.953c-71.159-71.159-181.188-95.714-330.953-95.714s-259.794 24.555-330.953 95.714c-71.159 71.159-95.714 181.188-95.714 330.953s24.555 259.794 95.714 330.953zM226.315 733.694c-52.18-52.18-76.969-139.484-76.969-285.698s24.788-233.519 76.969-285.696c52.18-52.181 139.483-76.971 285.698-76.971s233.519 24.789 285.7 76.971c52.177 52.177 76.966 139.482 76.966 285.696s-24.789 233.518-76.966 285.698c-52.181 52.18-139.486 76.969-285.7 76.969s-233.518-24.788-285.698-76.969z" />
<glyph unicode="&#xe92f;" glyph-name="info-square" d="M797.705 162.308c52.181 52.177 76.971 139.482 76.971 285.696s-24.789 233.518-76.971 285.698c-52.177 52.18-139.482 76.969-285.696 76.969s-233.518-24.788-285.698-76.969c-52.18-52.18-76.969-139.483-76.969-285.698s24.788-233.519 76.969-285.696c52.18-52.181 139.484-76.971 285.698-76.971s233.519 24.789 285.696 76.971zM842.961 117.052c-71.159-71.159-181.188-95.714-330.953-95.714s-259.794 24.555-330.953 95.714c-71.158 71.159-95.714 181.188-95.714 330.953s24.556 259.794 95.714 330.953c71.159 71.159 181.189 95.714 330.953 95.714s259.793-24.556 330.953-95.714c71.159-71.158 95.714-181.188 95.714-330.953s-24.555-259.793-95.714-330.953zM512.009 249.813c-17.673 0-32 14.327-32 32v166.187c0 17.673 14.327 32 32 32s32-14.327 32-32v-166.187c0-17.673-14.327-32-32-32zM544.192 597.333c0-17.673-14.327-32-32-32h-0.384c-17.673 0-32 14.327-32 32s14.327 32 32 32h0.384c17.673 0 32-14.327 32-32z" />
<glyph unicode="&#xe930;" glyph-name="location" d="M373.769 503.019c0 76.599 62.071 138.688 138.645 138.688 76.608 0 138.688-62.081 138.688-138.688 0-76.574-62.089-138.645-138.688-138.645-76.565 0-138.645 62.080-138.645 138.645zM512.414 577.707c-41.207 0-74.645-33.419-74.645-74.688 0-41.216 33.429-74.645 74.645-74.645 41.271 0 74.688 33.434 74.688 74.645 0 41.261-33.425 74.688-74.688 74.688zM511.979 800c-158.672 0-287.979-130.445-287.979-292.207 0-105.557 45.556-209.754 106.809-287.919 30.507-38.933 64.195-70.468 96.694-92.023 32.99-21.875 62.251-31.851 84.476-31.851 22.238 0 51.511 9.975 84.501 31.851 32.508 21.555 66.197 53.090 96.708 92.023 61.257 78.165 106.812 182.362 106.812 287.919 0 161.757-129.344 292.207-288.021 292.207zM160 507.793c0 196.308 157.166 356.207 351.979 356.207 194.807 0 352.021-159.893 352.021-356.207 0-123.14-52.608-240.841-120.439-327.394-34.035-43.43-72.619-79.962-111.71-105.886-38.609-25.6-80.265-42.513-119.872-42.513-39.599 0-81.246 16.913-119.847 42.513-39.088 25.924-77.667 62.455-111.698 105.886-67.825 86.554-120.433 204.254-120.433 327.394z" />
<glyph unicode="&#xe931;" glyph-name="lock" d="M505.335 874.667c-122.214-1.536-221.672-100.539-223.752-222.75-0.002-0.195-0.002-0.389 0-0.584v-92.5c0-8.487 3.372-16.626 9.373-22.627s14.141-9.371 22.627-9.371c8.487 0 16.626 3.371 22.627 9.371s9.373 14.14 9.373 22.627v92c1.504 88.306 72.278 158.723 160.584 159.833 90.142 1.11 163.473-70.406 164.582-160.583v-91.25c0-8.487 3.371-16.626 9.374-22.627 5.999-6 14.14-9.371 22.626-9.371s16.627 3.371 22.626 9.371c6.003 6.001 9.374 14.14 9.374 22.627v91.666c0 0.139 0 0.278 0 0.417-1.536 124.777-104.691 225.286-229.414 223.75zM508.169 388.002c-8.491 0-16.627-3.375-22.63-9.374-5.999-6.003-9.37-14.14-9.37-22.626v-94.754c0-8.486 3.371-16.623 9.37-22.626 6.003-5.999 14.14-9.374 22.63-9.374 8.486 0 16.623 3.375 22.626 9.374 5.999 6.003 9.374 14.14 9.374 22.626v94.754c0 8.486-3.375 16.623-9.374 22.626-6.003 5.999-14.14 9.374-22.626 9.374zM508.169 615.5c-125.473 0-214.81-15.993-275.585-65.75s-83.25-129.159-83.25-233.833c0-104.695 22.474-184.068 83.25-233.835 60.776-49.762 150.112-65.749 275.585-65.749 125.47 0 214.878 15.991 275.665 65.749 60.787 49.762 83.251 129.139 83.251 233.835 0 104.674-22.464 184.077-83.251 233.833-60.787 49.754-150.195 65.75-275.665 65.75zM508.169 551.5c119.646 0 193.711-17.472 235.081-51.331 41.37-33.865 59.836-88.269 59.836-184.252 0-96.009-18.466-150.383-59.836-184.252-41.37-33.865-115.435-51.332-235.081-51.332-119.651 0-193.728 17.472-235.085 51.332-41.358 33.865-59.75 88.243-59.75 184.252 0 95.987 18.392 150.391 59.75 184.252 41.358 33.858 115.435 51.331 235.085 51.331z" />
<glyph unicode="&#xe932;" glyph-name="login" d="M85.333 442.85c0 17.673 14.327 32 32 32h513.749c17.673 0 32-14.327 32-32s-14.327-32-32-32h-513.749c-17.673 0-32 14.327-32 32zM483.537 589.847c12.471 12.522 32.73 12.564 45.252 0.093l124.928-124.417c6.033-6.003 9.421-14.165 9.421-22.673s-3.388-16.67-9.421-22.673l-124.928-124.416c-12.523-12.471-32.781-12.429-45.252 0.094s-12.429 32.781 0.094 45.252l102.161 101.743-102.161 101.742c-12.523 12.471-12.565 32.733-0.094 45.255zM398.094 770.134c-33.14-24.557-49.707-64.702-56.52-138.613-1.622-17.599-17.204-30.55-34.802-28.928s-30.55 17.204-28.928 34.802c7.267 78.836 26.326 142.797 82.147 184.16 53.517 39.657 134.149 53.116 248.385 53.116 151.458 0 244.582-23.746 292.369-101.544 22.78-37.080 32.845-83.002 37.734-135.571 4.873-52.363 4.873-115.269 4.873-188.203v-2.697c0-72.934 0-135.842-4.873-188.203-4.89-52.57-14.955-98.492-37.734-135.573-47.787-77.798-140.911-101.542-292.369-101.542-114.236 0-194.868 13.461-248.385 53.116-55.82 41.365-74.88 105.323-82.147 184.162-1.622 17.596 11.329 33.178 28.928 34.799 17.598 1.626 33.18-11.328 34.802-28.928 6.813-73.907 23.38-114.057 56.52-138.611 35.442-26.266 97.104-40.538 210.282-40.538 151.518 0 209.882 25.536 237.837 71.044 15.095 24.572 23.966 58.812 28.544 108.002 4.565 49.071 4.595 109.073 4.595 183.62s-0.030 134.548-4.595 183.622c-4.578 49.191-13.449 83.429-28.544 108.002-27.955 45.508-86.319 71.043-237.837 71.043-113.178 0-174.839-14.274-210.282-40.537z" />
<glyph unicode="&#xe933;" glyph-name="logout" d="M384 442.85c0 17.673 14.327 32 32 32h513.749c17.673 0 32-14.327 32-32s-14.327-32-32-32h-513.749c-17.673 0-32 14.327-32 32zM782.204 589.847c12.471 12.522 32.73 12.564 45.252 0.093l124.928-124.417c6.033-6.003 9.421-14.165 9.421-22.673s-3.388-16.67-9.421-22.673l-124.928-124.416c-12.523-12.471-32.781-12.429-45.252 0.094s-12.429 32.781 0.094 45.252l102.161 101.743-102.161 101.742c-12.523 12.471-12.565 32.733-0.094 45.255zM609.634 770.134c33.139-24.557 49.707-64.702 56.521-138.613 1.621-17.599 17.203-30.55 34.799-28.928 17.6 1.622 30.554 17.204 28.928 34.802-7.266 78.836-26.325 142.797-82.146 184.16-53.517 39.657-134.148 53.116-248.384 53.116-151.459 0-244.581-23.746-292.37-101.544-22.777-37.080-32.843-83.002-37.734-135.571-4.872-52.363-4.872-115.269-4.872-188.203v-2.697c0-72.934 0-135.842 4.872-188.203 4.891-52.57 14.957-98.492 37.734-135.573 47.789-77.798 140.911-101.542 292.37-101.542 114.236 0 194.867 13.461 248.384 53.116 55.821 41.365 74.88 105.323 82.146 184.162 1.626 17.596-11.328 33.178-28.928 34.799-17.596 1.626-33.178-11.328-34.799-28.928-6.814-73.907-23.381-114.057-56.521-138.611-35.443-26.266-97.105-40.538-210.283-40.538-151.517 0-209.883 25.536-237.837 71.044-15.095 24.572-23.965 58.812-28.542 108.002-4.566 49.071-4.596 109.073-4.596 183.62s0.030 134.548 4.596 183.622c4.577 49.191 13.447 83.429 28.542 108.002 27.954 45.508 86.321 71.043 237.837 71.043 113.178 0 174.839-14.274 210.283-40.537z" />
<glyph unicode="&#xe934;" glyph-name="message" d="M724.002 595.68c11.315 13.571 31.488 15.405 45.065 4.094 13.577-11.313 15.415-31.491 4.1-45.069l-24.585 20.484c24.585-20.484 24.589-20.478 24.585-20.484l-0.051-0.065-0.107-0.124-0.354-0.424-1.293-1.523c-1.118-1.306-2.731-3.179-4.8-5.539-4.134-4.718-10.103-11.394-17.566-19.376-14.891-15.927-35.904-37.261-60.292-58.692-24.273-21.329-52.578-43.375-82.048-60.241-28.962-16.576-62.063-29.909-95.211-29.909-33.118 0-66.295 13.325-95.363 29.875-29.592 16.849-58.074 38.874-82.531 60.19-24.571 21.419-45.773 42.743-60.803 58.662-7.534 7.978-13.563 14.651-17.741 19.365-2.089 2.358-3.719 4.23-4.844 5.534l-1.305 1.521-0.465 0.547-0.033 0.040c-0.005 0.006-0.021 0.024 24.451 20.643l-24.451-20.643c-11.388 13.515-9.684 33.728 3.832 45.115 13.513 11.386 33.695 9.664 45.084-3.844 0 0 0 0 0 0l0.049-0.058 0.24-0.282 1.053-1.228c0.953-1.104 2.397-2.764 4.29-4.9 3.788-4.275 9.361-10.445 16.377-17.875 14.068-14.902 33.749-34.676 56.32-54.353 22.685-19.772 47.603-38.844 72.142-52.817 25.062-14.268 46.75-21.491 63.697-21.491 16.943 0 38.528 7.211 63.42 21.457 24.384 13.952 49.101 33.007 71.59 52.77 22.374 19.661 41.86 39.424 55.787 54.319 6.942 7.427 12.454 13.593 16.196 17.865 1.873 2.135 3.302 3.793 4.241 4.896l1.041 1.225 0.282 0.337zM215.639 730.117c-53.594-51.302-79.017-136.939-79.017-280.786 0-143.821 25.421-229.461 79.017-280.768 54.009-51.703 144.487-76.215 295.332-76.215s241.323 24.512 295.33 76.215c53.598 51.307 79.019 136.947 79.019 280.768 0 143.847-25.421 229.484-79.014 280.786-54.012 51.698-144.486 76.198-295.334 76.198s-241.325-24.5-295.333-76.198zM171.383 776.35c72.976 69.854 185.673 93.966 339.588 93.966s266.611-24.112 339.588-93.966c73.391-70.25 98.761-179.105 98.761-327.019 0-147.891-25.374-256.742-98.761-326.997-72.973-69.862-185.673-93.986-339.588-93.986-153.917 0-266.615 24.124-339.59 93.986-73.388 70.255-98.76 179.106-98.76 326.997 0 147.914 25.372 256.768 98.761 327.019z" />
<glyph unicode="&#xe935;" glyph-name="more-circle" d="M226.31 733.694c-52.18-52.18-76.969-139.484-76.969-285.698s24.788-233.519 76.969-285.696c52.18-52.181 139.484-76.971 285.698-76.971s233.519 24.789 285.696 76.971c52.181 52.177 76.971 139.482 76.971 285.696s-24.789 233.518-76.971 285.698c-52.177 52.18-139.482 76.969-285.696 76.969s-233.518-24.788-285.698-76.969zM181.056 778.949c71.159 71.158 181.189 95.714 330.953 95.714s259.793-24.556 330.953-95.714c71.159-71.159 95.714-181.189 95.714-330.953s-24.555-259.793-95.714-330.953c-71.159-71.159-181.188-95.714-330.953-95.714s-259.794 24.555-330.953 95.714c-71.158 71.159-95.714 181.188-95.714 330.953s24.556 259.794 95.714 330.953zM606.059 366.933c0 23.565 19.102 42.667 42.667 42.667h0.384c23.565 0 42.667-19.102 42.667-42.667s-19.102-42.667-42.667-42.667h-0.384c-23.565 0-42.667 19.102-42.667 42.667zM478.059 537.6c0 23.564 19.102 42.667 42.667 42.667h0.384c23.565 0 42.667-19.103 42.667-42.667s-19.102-42.667-42.667-42.667h-0.384c-23.565 0-42.667 19.102-42.667 42.667zM349.675 366.933c0 23.565 19.102 42.667 42.667 42.667h0.384c23.564 0 42.667-19.102 42.667-42.667s-19.103-42.667-42.667-42.667h-0.384c-23.564 0-42.667 19.102-42.667 42.667z" />
<glyph unicode="&#xe936;" glyph-name="more-square" d="M226.302 733.694c-52.18-52.18-76.969-139.484-76.969-285.698s24.788-233.519 76.969-285.696c52.18-52.181 139.483-76.971 285.698-76.971s233.519 24.789 285.696 76.971c52.181 52.177 76.971 139.482 76.971 285.696s-24.789 233.518-76.971 285.698c-52.177 52.18-139.482 76.969-285.696 76.969s-233.518-24.788-285.698-76.969zM181.047 778.949c71.159 71.158 181.189 95.714 330.953 95.714s259.793-24.556 330.953-95.714c71.159-71.159 95.714-181.189 95.714-330.953s-24.555-259.793-95.714-330.953c-71.159-71.159-181.188-95.714-330.953-95.714s-259.794 24.555-330.953 95.714c-71.158 71.159-95.714 181.188-95.714 330.953s24.556 259.794 95.714 330.953zM639.723 448c0 23.565 19.102 42.667 42.667 42.667h0.384c23.565 0 42.667-19.102 42.667-42.667s-19.102-42.667-42.667-42.667h-0.384c-23.565 0-42.667 19.102-42.667 42.667zM469.099 448c0 23.565 19.102 42.667 42.667 42.667h0.384c23.565 0 42.667-19.102 42.667-42.667s-19.102-42.667-42.667-42.667h-0.384c-23.565 0-42.667 19.102-42.667 42.667zM298.475 448c0 23.565 19.102 42.667 42.667 42.667h0.384c23.564 0 42.667-19.102 42.667-42.667s-19.103-42.667-42.667-42.667h-0.384c-23.564 0-42.667 19.102-42.667 42.667z" />
<glyph unicode="&#xe937;" glyph-name="notification" d="M279.903 772.526c49.555 63.889 126.348 112.202 231.935 112.202 105.566 0 182.357-48.315 231.919-112.201 48.777-62.88 71.479-141.005 71.479-204.366 0-18.186-0.55-31.688-0.969-41.932-0.090-2.108-0.166-4.075-0.239-5.918-0.41-11.021-0.329-16.316 0.521-21.559 1.929-11.93 8.030-26.624 32.41-80.354 0.243-0.538 0.474-1.084 0.687-1.634 17.613-45.329 13.675-87.031-7.275-122.368-19.994-33.724-53.594-58.551-89.916-76.672-72.631-36.233-168.644-51.827-238.618-51.827-69.995 0-166.019 15.595-238.651 51.827-36.321 18.121-69.921 42.953-89.907 76.676-20.944 35.341-24.874 77.043-7.248 122.372 0.213 0.546 0.441 1.088 0.684 1.626 24.38 53.73 30.483 68.425 32.41 80.354 0.848 5.244 0.931 10.539 0.519 21.559-0.069 1.843-0.149 3.81-0.236 5.918-0.419 10.244-0.972 23.746-0.972 41.932 0 63.357 22.692 141.483 71.466 204.364zM330.474 733.301c-39.627-51.089-58.037-115.247-58.037-165.139 0-16.772 0.494-28.889 0.91-39.091 0.090-2.202 0.176-4.314 0.253-6.366 0.425-11.345 0.648-22.148-1.293-34.163-3.606-22.315-14.568-46.473-36.497-94.801l-0.428-0.939c-10.619-27.849-7.213-48.614 2.956-65.775 11.222-18.935 32.733-36.727 63.419-52.036 61.382-30.618 146.952-45.094 210.081-45.094 63.104 0 148.668 14.477 210.048 45.094 30.69 15.309 52.203 33.101 63.433 52.041 10.172 17.161 13.581 37.926 2.974 65.771l-0.427 0.943c-21.931 48.324-32.892 72.482-36.497 94.797-1.941 12.015-1.719 22.818-1.293 34.163 0.077 2.048 0.162 4.164 0.252 6.366 0.418 10.202 0.909 22.318 0.909 39.091 0 49.889-18.415 114.046-58.048 165.137-38.852 50.085-97.762 87.429-181.35 87.429-83.61 0-142.518-37.345-181.364-87.427zM391.952 108.681c13.181 11.772 33.41 10.633 45.181-2.551 42.906-48.030 106.786-47.586 149.414 0.030 11.789 13.167 32.017 14.285 45.188 2.496 13.167-11.789 14.285-32.017 2.496-45.184-67.819-75.755-176.23-76.774-244.828 0.026-11.773 13.18-10.633 33.408 2.548 45.184z" />
<glyph unicode="&#xe938;" glyph-name="paper-download" d="M210.365 777.711c65.359 72.088 166.729 96.96 303.333 96.96 39.539 0 76.011-2.194 108.877-6.696 6.656-0.912 12.86-3.897 17.724-8.532l241.92-230.4c4.915-4.679 8.213-10.798 9.421-17.475 8.55-47.245 12.459-101.745 12.459-163.564 0-149.325-22.131-258.786-86.711-329.89-65.425-72.030-166.916-96.777-303.689-96.777-136.573 0-237.955 24.751-303.324 96.789-64.517 71.1-86.649 180.548-86.649 329.877 0 149.129 22.137 258.563 86.64 329.707zM257.778 734.724c-47.39-52.27-70.054-140.168-70.054-286.72 0-146.778 22.668-234.662 70.044-286.869 46.524-51.268 124.129-75.797 255.929-75.797 132.028 0 209.741 24.533 256.311 75.81 47.42 52.203 70.089 140.075 70.089 286.857 0 54.677-3.2 101.81-9.698 142.010l-226.633 215.843c-26.918 3.183-57.015 4.814-90.069 4.814-131.769 0-209.385-24.622-255.92-75.947zM594.526 871.142c17.673 0 32-14.327 32-32v-113.536c0-61.589 49.916-111.488 111.531-111.488h125.909c17.673 0 32-14.327 32-32s-14.327-32-32-32h-125.909c-96.934 0-175.531 78.528-175.531 175.488v113.536c0 17.673 14.327 32 32 32zM497.506 566.349c17.673 0 32-14.327 32-32v-257.749c0-17.673-14.327-32-32-32s-32 14.327-32 32v257.749c0 17.673 14.327 32 32 32zM374.844 399.757c12.523 12.467 32.784 12.425 45.254-0.098l77.378-77.709 77.376 77.709c12.471 12.523 32.734 12.565 45.257 0.098 12.523-12.471 12.565-32.734 0.098-45.257l-100.053-100.48c-6.007-6.029-14.165-9.421-22.677-9.421s-16.67 3.392-22.677 9.421l-100.051 100.48c-12.47 12.523-12.427 32.785 0.096 45.257z" />
</font>
</defs>
</svg>
